%TF.GenerationSoftware,KiCad,Pcbnew,5.0.0-rc2-dev-unknown-bf135b0~64~ubuntu18.04.1*%
%TF.CreationDate,2018-05-03T18:07:44-07:00*%
%TF.ProjectId,PrntrBoardV1,50726E7472426F61726456312E6B6963,rev?*%
%TF.SameCoordinates,Original*%
%TF.FileFunction,Legend,Bot*%
%TF.FilePolarity,Positive*%
%FSLAX46Y46*%
G04 Gerber Fmt 4.6, Leading zero omitted, Abs format (unit mm)*
G04 Created by KiCad (PCBNEW 5.0.0-rc2-dev-unknown-bf135b0~64~ubuntu18.04.1) date Thu May  3 18:07:44 2018*
%MOMM*%
%LPD*%
G01*
G04 APERTURE LIST*
%ADD10C,0.150000*%
%ADD11C,0.300000*%
%ADD12C,0.100000*%
%ADD13C,0.120000*%
G04 APERTURE END LIST*
D10*
X67841095Y-57221380D02*
X67841095Y-56221380D01*
X67269666Y-57221380D01*
X67269666Y-56221380D01*
X66364904Y-56554714D02*
X66364904Y-57221380D01*
X66793476Y-56554714D02*
X66793476Y-57078523D01*
X66745857Y-57173761D01*
X66650619Y-57221380D01*
X66507761Y-57221380D01*
X66412523Y-57173761D01*
X66364904Y-57126142D01*
X65460142Y-57173761D02*
X65555380Y-57221380D01*
X65745857Y-57221380D01*
X65841095Y-57173761D01*
X65888714Y-57126142D01*
X65936333Y-57030904D01*
X65936333Y-56745190D01*
X65888714Y-56649952D01*
X65841095Y-56602333D01*
X65745857Y-56554714D01*
X65555380Y-56554714D01*
X65460142Y-56602333D01*
X64888714Y-57221380D02*
X64983952Y-57173761D01*
X65031571Y-57078523D01*
X65031571Y-56221380D01*
X64126809Y-57173761D02*
X64222047Y-57221380D01*
X64412523Y-57221380D01*
X64507761Y-57173761D01*
X64555380Y-57078523D01*
X64555380Y-56697571D01*
X64507761Y-56602333D01*
X64412523Y-56554714D01*
X64222047Y-56554714D01*
X64126809Y-56602333D01*
X64079190Y-56697571D01*
X64079190Y-56792809D01*
X64555380Y-56888047D01*
X63507761Y-57221380D02*
X63603000Y-57173761D01*
X63650619Y-57126142D01*
X63698238Y-57030904D01*
X63698238Y-56745190D01*
X63650619Y-56649952D01*
X63603000Y-56602333D01*
X63507761Y-56554714D01*
X63364904Y-56554714D01*
X63269666Y-56602333D01*
X63222047Y-56649952D01*
X63174428Y-56745190D01*
X63174428Y-57030904D01*
X63222047Y-57126142D01*
X63269666Y-57173761D01*
X63364904Y-57221380D01*
X63507761Y-57221380D01*
X62745857Y-56840428D02*
X61983952Y-56840428D01*
X61174428Y-56697571D02*
X61507761Y-56697571D01*
X61507761Y-57221380D02*
X61507761Y-56221380D01*
X61031571Y-56221380D01*
X60222047Y-56554714D02*
X60222047Y-57221380D01*
X60460142Y-56173761D02*
X60698238Y-56888047D01*
X60079190Y-56888047D01*
X59269666Y-56554714D02*
X59269666Y-57221380D01*
X59507761Y-56173761D02*
X59745857Y-56888047D01*
X59126809Y-56888047D01*
X58317285Y-56221380D02*
X58507761Y-56221380D01*
X58603000Y-56269000D01*
X58650619Y-56316619D01*
X58745857Y-56459476D01*
X58793476Y-56649952D01*
X58793476Y-57030904D01*
X58745857Y-57126142D01*
X58698238Y-57173761D01*
X58603000Y-57221380D01*
X58412523Y-57221380D01*
X58317285Y-57173761D01*
X58269666Y-57126142D01*
X58222047Y-57030904D01*
X58222047Y-56792809D01*
X58269666Y-56697571D01*
X58317285Y-56649952D01*
X58412523Y-56602333D01*
X58603000Y-56602333D01*
X58698238Y-56649952D01*
X58745857Y-56697571D01*
X58793476Y-56792809D01*
X57222047Y-57221380D02*
X57555380Y-56745190D01*
X57793476Y-57221380D02*
X57793476Y-56221380D01*
X57412523Y-56221380D01*
X57317285Y-56269000D01*
X57269666Y-56316619D01*
X57222047Y-56411857D01*
X57222047Y-56554714D01*
X57269666Y-56649952D01*
X57317285Y-56697571D01*
X57412523Y-56745190D01*
X57793476Y-56745190D01*
X56793476Y-56697571D02*
X56460142Y-56697571D01*
X56317285Y-57221380D02*
X56793476Y-57221380D01*
X56793476Y-56221380D01*
X56317285Y-56221380D01*
D11*
X115446642Y-30777571D02*
X115446642Y-29777571D01*
X115446642Y-30063285D02*
X115375214Y-29920428D01*
X115303785Y-29849000D01*
X115160928Y-29777571D01*
X115018071Y-29777571D01*
X113946642Y-30706142D02*
X114089500Y-30777571D01*
X114375214Y-30777571D01*
X114518071Y-30706142D01*
X114589500Y-30563285D01*
X114589500Y-29991857D01*
X114518071Y-29849000D01*
X114375214Y-29777571D01*
X114089500Y-29777571D01*
X113946642Y-29849000D01*
X113875214Y-29991857D01*
X113875214Y-30134714D01*
X114589500Y-30277571D01*
X113375214Y-29777571D02*
X113018071Y-30777571D01*
X112660928Y-29777571D01*
X110660928Y-29277571D02*
X110518071Y-29277571D01*
X110375214Y-29349000D01*
X110303785Y-29420428D01*
X110232357Y-29563285D01*
X110160928Y-29849000D01*
X110160928Y-30206142D01*
X110232357Y-30491857D01*
X110303785Y-30634714D01*
X110375214Y-30706142D01*
X110518071Y-30777571D01*
X110660928Y-30777571D01*
X110803785Y-30706142D01*
X110875214Y-30634714D01*
X110946642Y-30491857D01*
X111018071Y-30206142D01*
X111018071Y-29849000D01*
X110946642Y-29563285D01*
X110875214Y-29420428D01*
X110803785Y-29349000D01*
X110660928Y-29277571D01*
D12*
X113489880Y-33878833D02*
X113537500Y-33831214D01*
X113632738Y-33688357D01*
X113680357Y-33593119D01*
X113727976Y-33450261D01*
X113775595Y-33212166D01*
X113775595Y-33021690D01*
X113727976Y-32783595D01*
X113680357Y-32640738D01*
X113632738Y-32545500D01*
X113537500Y-32402642D01*
X113489880Y-32355023D01*
X112680357Y-33450261D02*
X112775595Y-33497880D01*
X112966071Y-33497880D01*
X113061309Y-33450261D01*
X113108928Y-33402642D01*
X113156547Y-33307404D01*
X113156547Y-33021690D01*
X113108928Y-32926452D01*
X113061309Y-32878833D01*
X112966071Y-32831214D01*
X112775595Y-32831214D01*
X112680357Y-32878833D01*
X112347023Y-33878833D02*
X112299404Y-33831214D01*
X112204166Y-33688357D01*
X112156547Y-33593119D01*
X112108928Y-33450261D01*
X112061309Y-33212166D01*
X112061309Y-33021690D01*
X112108928Y-32783595D01*
X112156547Y-32640738D01*
X112204166Y-32545500D01*
X112299404Y-32402642D01*
X112347023Y-32355023D01*
X110823214Y-33497880D02*
X110823214Y-32831214D01*
X110823214Y-32497880D02*
X110870833Y-32545500D01*
X110823214Y-32593119D01*
X110775595Y-32545500D01*
X110823214Y-32497880D01*
X110823214Y-32593119D01*
X109680357Y-33593119D02*
X109775595Y-33545500D01*
X109870833Y-33450261D01*
X110013690Y-33307404D01*
X110108928Y-33259785D01*
X110204166Y-33259785D01*
X110156547Y-33497880D02*
X110251785Y-33450261D01*
X110347023Y-33355023D01*
X110394642Y-33164547D01*
X110394642Y-32831214D01*
X110347023Y-32640738D01*
X110251785Y-32545500D01*
X110156547Y-32497880D01*
X109966071Y-32497880D01*
X109870833Y-32545500D01*
X109775595Y-32640738D01*
X109727976Y-32831214D01*
X109727976Y-33164547D01*
X109775595Y-33355023D01*
X109870833Y-33450261D01*
X109966071Y-33497880D01*
X110156547Y-33497880D01*
X108870833Y-32831214D02*
X108870833Y-33497880D01*
X109299404Y-32831214D02*
X109299404Y-33355023D01*
X109251785Y-33450261D01*
X109156547Y-33497880D01*
X109013690Y-33497880D01*
X108918452Y-33450261D01*
X108870833Y-33402642D01*
X108394642Y-33497880D02*
X108394642Y-32831214D01*
X108394642Y-33021690D02*
X108347023Y-32926452D01*
X108299404Y-32878833D01*
X108204166Y-32831214D01*
X108108928Y-32831214D01*
X107870833Y-32831214D02*
X107632738Y-33497880D01*
X107394642Y-32831214D02*
X107632738Y-33497880D01*
X107727976Y-33735976D01*
X107775595Y-33783595D01*
X107870833Y-33831214D01*
X107013690Y-33402642D02*
X106966071Y-33450261D01*
X107013690Y-33497880D01*
X107061309Y-33450261D01*
X107013690Y-33402642D01*
X107013690Y-33497880D01*
X106108928Y-32831214D02*
X106108928Y-33497880D01*
X106537500Y-32831214D02*
X106537500Y-33355023D01*
X106489880Y-33450261D01*
X106394642Y-33497880D01*
X106251785Y-33497880D01*
X106156547Y-33450261D01*
X106108928Y-33402642D01*
X105680357Y-33450261D02*
X105585119Y-33497880D01*
X105394642Y-33497880D01*
X105299404Y-33450261D01*
X105251785Y-33355023D01*
X105251785Y-33307404D01*
X105299404Y-33212166D01*
X105394642Y-33164547D01*
X105537500Y-33164547D01*
X105632738Y-33116928D01*
X105680357Y-33021690D01*
X105680357Y-32974071D01*
X105632738Y-32878833D01*
X105537500Y-32831214D01*
X105394642Y-32831214D01*
X105299404Y-32878833D01*
X113323214Y-34812166D02*
X112847023Y-34812166D01*
X113418452Y-35097880D02*
X113085119Y-34097880D01*
X112751785Y-35097880D01*
X112418452Y-34431214D02*
X112418452Y-35431214D01*
X112418452Y-34478833D02*
X112323214Y-34431214D01*
X112132738Y-34431214D01*
X112037500Y-34478833D01*
X111989880Y-34526452D01*
X111942261Y-34621690D01*
X111942261Y-34907404D01*
X111989880Y-35002642D01*
X112037500Y-35050261D01*
X112132738Y-35097880D01*
X112323214Y-35097880D01*
X112418452Y-35050261D01*
X111513690Y-35097880D02*
X111513690Y-34431214D01*
X111513690Y-34621690D02*
X111466071Y-34526452D01*
X111418452Y-34478833D01*
X111323214Y-34431214D01*
X111227976Y-34431214D01*
X110894642Y-35097880D02*
X110894642Y-34431214D01*
X110894642Y-34097880D02*
X110942261Y-34145500D01*
X110894642Y-34193119D01*
X110847023Y-34145500D01*
X110894642Y-34097880D01*
X110894642Y-34193119D01*
X110275595Y-35097880D02*
X110370833Y-35050261D01*
X110418452Y-34955023D01*
X110418452Y-34097880D01*
X109180357Y-34193119D02*
X109132738Y-34145500D01*
X109037500Y-34097880D01*
X108799404Y-34097880D01*
X108704166Y-34145500D01*
X108656547Y-34193119D01*
X108608928Y-34288357D01*
X108608928Y-34383595D01*
X108656547Y-34526452D01*
X109227976Y-35097880D01*
X108608928Y-35097880D01*
X107989880Y-34097880D02*
X107894642Y-34097880D01*
X107799404Y-34145500D01*
X107751785Y-34193119D01*
X107704166Y-34288357D01*
X107656547Y-34478833D01*
X107656547Y-34716928D01*
X107704166Y-34907404D01*
X107751785Y-35002642D01*
X107799404Y-35050261D01*
X107894642Y-35097880D01*
X107989880Y-35097880D01*
X108085119Y-35050261D01*
X108132738Y-35002642D01*
X108180357Y-34907404D01*
X108227976Y-34716928D01*
X108227976Y-34478833D01*
X108180357Y-34288357D01*
X108132738Y-34193119D01*
X108085119Y-34145500D01*
X107989880Y-34097880D01*
X106704166Y-35097880D02*
X107275595Y-35097880D01*
X106989880Y-35097880D02*
X106989880Y-34097880D01*
X107085119Y-34240738D01*
X107180357Y-34335976D01*
X107275595Y-34383595D01*
X106132738Y-34526452D02*
X106227976Y-34478833D01*
X106275595Y-34431214D01*
X106323214Y-34335976D01*
X106323214Y-34288357D01*
X106275595Y-34193119D01*
X106227976Y-34145500D01*
X106132738Y-34097880D01*
X105942261Y-34097880D01*
X105847023Y-34145500D01*
X105799404Y-34193119D01*
X105751785Y-34288357D01*
X105751785Y-34335976D01*
X105799404Y-34431214D01*
X105847023Y-34478833D01*
X105942261Y-34526452D01*
X106132738Y-34526452D01*
X106227976Y-34574071D01*
X106275595Y-34621690D01*
X106323214Y-34716928D01*
X106323214Y-34907404D01*
X106275595Y-35002642D01*
X106227976Y-35050261D01*
X106132738Y-35097880D01*
X105942261Y-35097880D01*
X105847023Y-35050261D01*
X105799404Y-35002642D01*
X105751785Y-34907404D01*
X105751785Y-34716928D01*
X105799404Y-34621690D01*
X105847023Y-34574071D01*
X105942261Y-34526452D01*
D11*
X64690071Y-80532857D02*
X64475785Y-80604285D01*
X64404357Y-80675714D01*
X64332928Y-80818571D01*
X64332928Y-81032857D01*
X64404357Y-81175714D01*
X64475785Y-81247142D01*
X64618642Y-81318571D01*
X65190071Y-81318571D01*
X65190071Y-79818571D01*
X64690071Y-79818571D01*
X64547214Y-79890000D01*
X64475785Y-79961428D01*
X64404357Y-80104285D01*
X64404357Y-80247142D01*
X64475785Y-80390000D01*
X64547214Y-80461428D01*
X64690071Y-80532857D01*
X65190071Y-80532857D01*
X63118642Y-81247142D02*
X63261500Y-81318571D01*
X63547214Y-81318571D01*
X63690071Y-81247142D01*
X63761500Y-81104285D01*
X63761500Y-80532857D01*
X63690071Y-80390000D01*
X63547214Y-80318571D01*
X63261500Y-80318571D01*
X63118642Y-80390000D01*
X63047214Y-80532857D01*
X63047214Y-80675714D01*
X63761500Y-80818571D01*
X61761500Y-81318571D02*
X61761500Y-79818571D01*
X61761500Y-81247142D02*
X61904357Y-81318571D01*
X62190071Y-81318571D01*
X62332928Y-81247142D01*
X62404357Y-81175714D01*
X62475785Y-81032857D01*
X62475785Y-80604285D01*
X62404357Y-80461428D01*
X62332928Y-80390000D01*
X62190071Y-80318571D01*
X61904357Y-80318571D01*
X61761500Y-80390000D01*
X59690071Y-81318571D02*
X59832928Y-81247142D01*
X59904357Y-81104285D01*
X59904357Y-79818571D01*
X58547214Y-81247142D02*
X58690071Y-81318571D01*
X58975785Y-81318571D01*
X59118642Y-81247142D01*
X59190071Y-81104285D01*
X59190071Y-80532857D01*
X59118642Y-80390000D01*
X58975785Y-80318571D01*
X58690071Y-80318571D01*
X58547214Y-80390000D01*
X58475785Y-80532857D01*
X58475785Y-80675714D01*
X59190071Y-80818571D01*
X57975785Y-80318571D02*
X57618642Y-81318571D01*
X57261500Y-80318571D01*
X56118642Y-81247142D02*
X56261500Y-81318571D01*
X56547214Y-81318571D01*
X56690071Y-81247142D01*
X56761500Y-81104285D01*
X56761500Y-80532857D01*
X56690071Y-80390000D01*
X56547214Y-80318571D01*
X56261500Y-80318571D01*
X56118642Y-80390000D01*
X56047214Y-80532857D01*
X56047214Y-80675714D01*
X56761500Y-80818571D01*
X55190071Y-81318571D02*
X55332928Y-81247142D01*
X55404357Y-81104285D01*
X55404357Y-79818571D01*
X63047214Y-82868571D02*
X63047214Y-84368571D01*
X63047214Y-82940000D02*
X62904357Y-82868571D01*
X62618642Y-82868571D01*
X62475785Y-82940000D01*
X62404357Y-83011428D01*
X62332928Y-83154285D01*
X62332928Y-83582857D01*
X62404357Y-83725714D01*
X62475785Y-83797142D01*
X62618642Y-83868571D01*
X62904357Y-83868571D01*
X63047214Y-83797142D01*
X61690071Y-83868571D02*
X61690071Y-82868571D01*
X61690071Y-83154285D02*
X61618642Y-83011428D01*
X61547214Y-82940000D01*
X61404357Y-82868571D01*
X61261500Y-82868571D01*
X60547214Y-83868571D02*
X60690071Y-83797142D01*
X60761500Y-83725714D01*
X60832928Y-83582857D01*
X60832928Y-83154285D01*
X60761500Y-83011428D01*
X60690071Y-82940000D01*
X60547214Y-82868571D01*
X60332928Y-82868571D01*
X60190071Y-82940000D01*
X60118642Y-83011428D01*
X60047214Y-83154285D01*
X60047214Y-83582857D01*
X60118642Y-83725714D01*
X60190071Y-83797142D01*
X60332928Y-83868571D01*
X60547214Y-83868571D01*
X59404357Y-83868571D02*
X59404357Y-82368571D01*
X59404357Y-82940000D02*
X59261500Y-82868571D01*
X58975785Y-82868571D01*
X58832928Y-82940000D01*
X58761500Y-83011428D01*
X58690071Y-83154285D01*
X58690071Y-83582857D01*
X58761500Y-83725714D01*
X58832928Y-83797142D01*
X58975785Y-83868571D01*
X59261500Y-83868571D01*
X59404357Y-83797142D01*
X57475785Y-83797142D02*
X57618642Y-83868571D01*
X57904357Y-83868571D01*
X58047214Y-83797142D01*
X58118642Y-83654285D01*
X58118642Y-83082857D01*
X58047214Y-82940000D01*
X57904357Y-82868571D01*
X57618642Y-82868571D01*
X57475785Y-82940000D01*
X57404357Y-83082857D01*
X57404357Y-83225714D01*
X58118642Y-83368571D01*
X41929500Y-79945571D02*
X41072357Y-79945571D01*
X41500928Y-81445571D02*
X41500928Y-79945571D01*
X40000928Y-81374142D02*
X40143785Y-81445571D01*
X40429500Y-81445571D01*
X40572357Y-81374142D01*
X40643785Y-81231285D01*
X40643785Y-80659857D01*
X40572357Y-80517000D01*
X40429500Y-80445571D01*
X40143785Y-80445571D01*
X40000928Y-80517000D01*
X39929500Y-80659857D01*
X39929500Y-80802714D01*
X40643785Y-80945571D01*
X39286642Y-81445571D02*
X39286642Y-80445571D01*
X39286642Y-80588428D02*
X39215214Y-80517000D01*
X39072357Y-80445571D01*
X38858071Y-80445571D01*
X38715214Y-80517000D01*
X38643785Y-80659857D01*
X38643785Y-81445571D01*
X38643785Y-80659857D02*
X38572357Y-80517000D01*
X38429500Y-80445571D01*
X38215214Y-80445571D01*
X38072357Y-80517000D01*
X38000928Y-80659857D01*
X38000928Y-81445571D01*
X37286642Y-80445571D02*
X37286642Y-81945571D01*
X37286642Y-80517000D02*
X37143785Y-80445571D01*
X36858071Y-80445571D01*
X36715214Y-80517000D01*
X36643785Y-80588428D01*
X36572357Y-80731285D01*
X36572357Y-81159857D01*
X36643785Y-81302714D01*
X36715214Y-81374142D01*
X36858071Y-81445571D01*
X37143785Y-81445571D01*
X37286642Y-81374142D01*
X40215214Y-83209857D02*
X39715214Y-83209857D01*
X39500928Y-83995571D02*
X40215214Y-83995571D01*
X40215214Y-82495571D01*
X39500928Y-82495571D01*
X38572357Y-82495571D02*
X38429500Y-82495571D01*
X38286642Y-82567000D01*
X38215214Y-82638428D01*
X38143785Y-82781285D01*
X38072357Y-83067000D01*
X38072357Y-83424142D01*
X38143785Y-83709857D01*
X38215214Y-83852714D01*
X38286642Y-83924142D01*
X38429500Y-83995571D01*
X38572357Y-83995571D01*
X38715214Y-83924142D01*
X38786642Y-83852714D01*
X38858071Y-83709857D01*
X38929500Y-83424142D01*
X38929500Y-83067000D01*
X38858071Y-82781285D01*
X38786642Y-82638428D01*
X38715214Y-82567000D01*
X38572357Y-82495571D01*
X41929500Y-73405071D02*
X41072357Y-73405071D01*
X41500928Y-74905071D02*
X41500928Y-73405071D01*
X40000928Y-74833642D02*
X40143785Y-74905071D01*
X40429500Y-74905071D01*
X40572357Y-74833642D01*
X40643785Y-74690785D01*
X40643785Y-74119357D01*
X40572357Y-73976500D01*
X40429500Y-73905071D01*
X40143785Y-73905071D01*
X40000928Y-73976500D01*
X39929500Y-74119357D01*
X39929500Y-74262214D01*
X40643785Y-74405071D01*
X39286642Y-74905071D02*
X39286642Y-73905071D01*
X39286642Y-74047928D02*
X39215214Y-73976500D01*
X39072357Y-73905071D01*
X38858071Y-73905071D01*
X38715214Y-73976500D01*
X38643785Y-74119357D01*
X38643785Y-74905071D01*
X38643785Y-74119357D02*
X38572357Y-73976500D01*
X38429500Y-73905071D01*
X38215214Y-73905071D01*
X38072357Y-73976500D01*
X38000928Y-74119357D01*
X38000928Y-74905071D01*
X37286642Y-73905071D02*
X37286642Y-75405071D01*
X37286642Y-73976500D02*
X37143785Y-73905071D01*
X36858071Y-73905071D01*
X36715214Y-73976500D01*
X36643785Y-74047928D01*
X36572357Y-74190785D01*
X36572357Y-74619357D01*
X36643785Y-74762214D01*
X36715214Y-74833642D01*
X36858071Y-74905071D01*
X37143785Y-74905071D01*
X37286642Y-74833642D01*
X40215214Y-76669357D02*
X39715214Y-76669357D01*
X39500928Y-77455071D02*
X40215214Y-77455071D01*
X40215214Y-75955071D01*
X39500928Y-75955071D01*
X38072357Y-77455071D02*
X38929500Y-77455071D01*
X38500928Y-77455071D02*
X38500928Y-75955071D01*
X38643785Y-76169357D01*
X38786642Y-76312214D01*
X38929500Y-76383642D01*
X41231000Y-65213571D02*
X40373857Y-65213571D01*
X40802428Y-66713571D02*
X40802428Y-65213571D01*
X39302428Y-66642142D02*
X39445285Y-66713571D01*
X39731000Y-66713571D01*
X39873857Y-66642142D01*
X39945285Y-66499285D01*
X39945285Y-65927857D01*
X39873857Y-65785000D01*
X39731000Y-65713571D01*
X39445285Y-65713571D01*
X39302428Y-65785000D01*
X39231000Y-65927857D01*
X39231000Y-66070714D01*
X39945285Y-66213571D01*
X38588142Y-66713571D02*
X38588142Y-65713571D01*
X38588142Y-65856428D02*
X38516714Y-65785000D01*
X38373857Y-65713571D01*
X38159571Y-65713571D01*
X38016714Y-65785000D01*
X37945285Y-65927857D01*
X37945285Y-66713571D01*
X37945285Y-65927857D02*
X37873857Y-65785000D01*
X37731000Y-65713571D01*
X37516714Y-65713571D01*
X37373857Y-65785000D01*
X37302428Y-65927857D01*
X37302428Y-66713571D01*
X36588142Y-65713571D02*
X36588142Y-67213571D01*
X36588142Y-65785000D02*
X36445285Y-65713571D01*
X36159571Y-65713571D01*
X36016714Y-65785000D01*
X35945285Y-65856428D01*
X35873857Y-65999285D01*
X35873857Y-66427857D01*
X35945285Y-66570714D01*
X36016714Y-66642142D01*
X36159571Y-66713571D01*
X36445285Y-66713571D01*
X36588142Y-66642142D01*
X39695285Y-68477857D02*
X39481000Y-68549285D01*
X39409571Y-68620714D01*
X39338142Y-68763571D01*
X39338142Y-68977857D01*
X39409571Y-69120714D01*
X39481000Y-69192142D01*
X39623857Y-69263571D01*
X40195285Y-69263571D01*
X40195285Y-67763571D01*
X39695285Y-67763571D01*
X39552428Y-67835000D01*
X39481000Y-67906428D01*
X39409571Y-68049285D01*
X39409571Y-68192142D01*
X39481000Y-68335000D01*
X39552428Y-68406428D01*
X39695285Y-68477857D01*
X40195285Y-68477857D01*
X38123857Y-69192142D02*
X38266714Y-69263571D01*
X38552428Y-69263571D01*
X38695285Y-69192142D01*
X38766714Y-69049285D01*
X38766714Y-68477857D01*
X38695285Y-68335000D01*
X38552428Y-68263571D01*
X38266714Y-68263571D01*
X38123857Y-68335000D01*
X38052428Y-68477857D01*
X38052428Y-68620714D01*
X38766714Y-68763571D01*
X37409571Y-69263571D02*
X37409571Y-67763571D01*
X37409571Y-68335000D02*
X37266714Y-68263571D01*
X36981000Y-68263571D01*
X36838142Y-68335000D01*
X36766714Y-68406428D01*
X36695285Y-68549285D01*
X36695285Y-68977857D01*
X36766714Y-69120714D01*
X36838142Y-69192142D01*
X36981000Y-69263571D01*
X37266714Y-69263571D01*
X37409571Y-69192142D01*
X76342071Y-93042357D02*
X75842071Y-93042357D01*
X75627785Y-93828071D02*
X76342071Y-93828071D01*
X76342071Y-92328071D01*
X75627785Y-92328071D01*
X74199214Y-93828071D02*
X75056357Y-93828071D01*
X74627785Y-93828071D02*
X74627785Y-92328071D01*
X74770642Y-92542357D01*
X74913500Y-92685214D01*
X75056357Y-92756642D01*
X71913500Y-93042357D02*
X72413500Y-93042357D01*
X72413500Y-93828071D02*
X72413500Y-92328071D01*
X71699214Y-92328071D01*
X71127785Y-93828071D02*
X71127785Y-92828071D01*
X71127785Y-92328071D02*
X71199214Y-92399500D01*
X71127785Y-92470928D01*
X71056357Y-92399500D01*
X71127785Y-92328071D01*
X71127785Y-92470928D01*
X70199214Y-93828071D02*
X70342071Y-93756642D01*
X70413500Y-93613785D01*
X70413500Y-92328071D01*
X68984928Y-93828071D02*
X68984928Y-93042357D01*
X69056357Y-92899500D01*
X69199214Y-92828071D01*
X69484928Y-92828071D01*
X69627785Y-92899500D01*
X68984928Y-93756642D02*
X69127785Y-93828071D01*
X69484928Y-93828071D01*
X69627785Y-93756642D01*
X69699214Y-93613785D01*
X69699214Y-93470928D01*
X69627785Y-93328071D01*
X69484928Y-93256642D01*
X69127785Y-93256642D01*
X68984928Y-93185214D01*
X68270642Y-93828071D02*
X68270642Y-92828071D01*
X68270642Y-92970928D02*
X68199214Y-92899500D01*
X68056357Y-92828071D01*
X67842071Y-92828071D01*
X67699214Y-92899500D01*
X67627785Y-93042357D01*
X67627785Y-93828071D01*
X67627785Y-93042357D02*
X67556357Y-92899500D01*
X67413500Y-92828071D01*
X67199214Y-92828071D01*
X67056357Y-92899500D01*
X66984928Y-93042357D01*
X66984928Y-93828071D01*
X65699214Y-93756642D02*
X65842071Y-93828071D01*
X66127785Y-93828071D01*
X66270642Y-93756642D01*
X66342071Y-93613785D01*
X66342071Y-93042357D01*
X66270642Y-92899500D01*
X66127785Y-92828071D01*
X65842071Y-92828071D01*
X65699214Y-92899500D01*
X65627785Y-93042357D01*
X65627785Y-93185214D01*
X66342071Y-93328071D01*
X64984928Y-92828071D02*
X64984928Y-93828071D01*
X64984928Y-92970928D02*
X64913500Y-92899500D01*
X64770642Y-92828071D01*
X64556357Y-92828071D01*
X64413500Y-92899500D01*
X64342071Y-93042357D01*
X64342071Y-93828071D01*
X63842071Y-92828071D02*
X63270642Y-92828071D01*
X63627785Y-92328071D02*
X63627785Y-93613785D01*
X63556357Y-93756642D01*
X63413500Y-93828071D01*
X63270642Y-93828071D01*
X73092071Y-96378071D02*
X73092071Y-94878071D01*
X72734928Y-94878071D01*
X72520642Y-94949500D01*
X72377785Y-95092357D01*
X72306357Y-95235214D01*
X72234928Y-95520928D01*
X72234928Y-95735214D01*
X72306357Y-96020928D01*
X72377785Y-96163785D01*
X72520642Y-96306642D01*
X72734928Y-96378071D01*
X73092071Y-96378071D01*
X71020642Y-96306642D02*
X71163500Y-96378071D01*
X71449214Y-96378071D01*
X71592071Y-96306642D01*
X71663500Y-96163785D01*
X71663500Y-95592357D01*
X71592071Y-95449500D01*
X71449214Y-95378071D01*
X71163500Y-95378071D01*
X71020642Y-95449500D01*
X70949214Y-95592357D01*
X70949214Y-95735214D01*
X71663500Y-95878071D01*
X70520642Y-95378071D02*
X69949214Y-95378071D01*
X70306357Y-94878071D02*
X70306357Y-96163785D01*
X70234928Y-96306642D01*
X70092071Y-96378071D01*
X69949214Y-96378071D01*
X68877785Y-96306642D02*
X69020642Y-96378071D01*
X69306357Y-96378071D01*
X69449214Y-96306642D01*
X69520642Y-96163785D01*
X69520642Y-95592357D01*
X69449214Y-95449500D01*
X69306357Y-95378071D01*
X69020642Y-95378071D01*
X68877785Y-95449500D01*
X68806357Y-95592357D01*
X68806357Y-95735214D01*
X69520642Y-95878071D01*
X67520642Y-96306642D02*
X67663500Y-96378071D01*
X67949214Y-96378071D01*
X68092071Y-96306642D01*
X68163500Y-96235214D01*
X68234928Y-96092357D01*
X68234928Y-95663785D01*
X68163500Y-95520928D01*
X68092071Y-95449500D01*
X67949214Y-95378071D01*
X67663500Y-95378071D01*
X67520642Y-95449500D01*
X67092071Y-95378071D02*
X66520642Y-95378071D01*
X66877785Y-94878071D02*
X66877785Y-96163785D01*
X66806357Y-96306642D01*
X66663500Y-96378071D01*
X66520642Y-96378071D01*
X78787285Y-85054285D02*
X78787285Y-85768571D01*
X79287285Y-84268571D02*
X78787285Y-85054285D01*
X78287285Y-84268571D01*
X76644428Y-85768571D02*
X76644428Y-84268571D01*
X76144428Y-85340000D01*
X75644428Y-84268571D01*
X75644428Y-85768571D01*
X74287285Y-85768571D02*
X74287285Y-84982857D01*
X74358714Y-84840000D01*
X74501571Y-84768571D01*
X74787285Y-84768571D01*
X74930142Y-84840000D01*
X74287285Y-85697142D02*
X74430142Y-85768571D01*
X74787285Y-85768571D01*
X74930142Y-85697142D01*
X75001571Y-85554285D01*
X75001571Y-85411428D01*
X74930142Y-85268571D01*
X74787285Y-85197142D01*
X74430142Y-85197142D01*
X74287285Y-85125714D01*
X73715857Y-85768571D02*
X72930142Y-84768571D01*
X73715857Y-84768571D02*
X72930142Y-85768571D01*
X79160285Y-74870571D02*
X78160285Y-74870571D01*
X79160285Y-76370571D01*
X78160285Y-76370571D01*
X76446000Y-76370571D02*
X76446000Y-74870571D01*
X75946000Y-75942000D01*
X75446000Y-74870571D01*
X75446000Y-76370571D01*
X74088857Y-76370571D02*
X74088857Y-75584857D01*
X74160285Y-75442000D01*
X74303142Y-75370571D01*
X74588857Y-75370571D01*
X74731714Y-75442000D01*
X74088857Y-76299142D02*
X74231714Y-76370571D01*
X74588857Y-76370571D01*
X74731714Y-76299142D01*
X74803142Y-76156285D01*
X74803142Y-76013428D01*
X74731714Y-75870571D01*
X74588857Y-75799142D01*
X74231714Y-75799142D01*
X74088857Y-75727714D01*
X73517428Y-76370571D02*
X72731714Y-75370571D01*
X73517428Y-75370571D02*
X72731714Y-76370571D01*
X57355571Y-88470357D02*
X56855571Y-88470357D01*
X56641285Y-89256071D02*
X57355571Y-89256071D01*
X57355571Y-87756071D01*
X56641285Y-87756071D01*
X55712714Y-87756071D02*
X55569857Y-87756071D01*
X55427000Y-87827500D01*
X55355571Y-87898928D01*
X55284142Y-88041785D01*
X55212714Y-88327500D01*
X55212714Y-88684642D01*
X55284142Y-88970357D01*
X55355571Y-89113214D01*
X55427000Y-89184642D01*
X55569857Y-89256071D01*
X55712714Y-89256071D01*
X55855571Y-89184642D01*
X55927000Y-89113214D01*
X55998428Y-88970357D01*
X56069857Y-88684642D01*
X56069857Y-88327500D01*
X55998428Y-88041785D01*
X55927000Y-87898928D01*
X55855571Y-87827500D01*
X55712714Y-87756071D01*
X52927000Y-88470357D02*
X53427000Y-88470357D01*
X53427000Y-89256071D02*
X53427000Y-87756071D01*
X52712714Y-87756071D01*
X52141285Y-89256071D02*
X52141285Y-88256071D01*
X52141285Y-87756071D02*
X52212714Y-87827500D01*
X52141285Y-87898928D01*
X52069857Y-87827500D01*
X52141285Y-87756071D01*
X52141285Y-87898928D01*
X51212714Y-89256071D02*
X51355571Y-89184642D01*
X51427000Y-89041785D01*
X51427000Y-87756071D01*
X49998428Y-89256071D02*
X49998428Y-88470357D01*
X50069857Y-88327500D01*
X50212714Y-88256071D01*
X50498428Y-88256071D01*
X50641285Y-88327500D01*
X49998428Y-89184642D02*
X50141285Y-89256071D01*
X50498428Y-89256071D01*
X50641285Y-89184642D01*
X50712714Y-89041785D01*
X50712714Y-88898928D01*
X50641285Y-88756071D01*
X50498428Y-88684642D01*
X50141285Y-88684642D01*
X49998428Y-88613214D01*
X49284142Y-89256071D02*
X49284142Y-88256071D01*
X49284142Y-88398928D02*
X49212714Y-88327500D01*
X49069857Y-88256071D01*
X48855571Y-88256071D01*
X48712714Y-88327500D01*
X48641285Y-88470357D01*
X48641285Y-89256071D01*
X48641285Y-88470357D02*
X48569857Y-88327500D01*
X48427000Y-88256071D01*
X48212714Y-88256071D01*
X48069857Y-88327500D01*
X47998428Y-88470357D01*
X47998428Y-89256071D01*
X46712714Y-89184642D02*
X46855571Y-89256071D01*
X47141285Y-89256071D01*
X47284142Y-89184642D01*
X47355571Y-89041785D01*
X47355571Y-88470357D01*
X47284142Y-88327500D01*
X47141285Y-88256071D01*
X46855571Y-88256071D01*
X46712714Y-88327500D01*
X46641285Y-88470357D01*
X46641285Y-88613214D01*
X47355571Y-88756071D01*
X45998428Y-88256071D02*
X45998428Y-89256071D01*
X45998428Y-88398928D02*
X45927000Y-88327500D01*
X45784142Y-88256071D01*
X45569857Y-88256071D01*
X45427000Y-88327500D01*
X45355571Y-88470357D01*
X45355571Y-89256071D01*
X44855571Y-88256071D02*
X44284142Y-88256071D01*
X44641285Y-87756071D02*
X44641285Y-89041785D01*
X44569857Y-89184642D01*
X44427000Y-89256071D01*
X44284142Y-89256071D01*
X54105571Y-91806071D02*
X54105571Y-90306071D01*
X53748428Y-90306071D01*
X53534142Y-90377500D01*
X53391285Y-90520357D01*
X53319857Y-90663214D01*
X53248428Y-90948928D01*
X53248428Y-91163214D01*
X53319857Y-91448928D01*
X53391285Y-91591785D01*
X53534142Y-91734642D01*
X53748428Y-91806071D01*
X54105571Y-91806071D01*
X52034142Y-91734642D02*
X52177000Y-91806071D01*
X52462714Y-91806071D01*
X52605571Y-91734642D01*
X52677000Y-91591785D01*
X52677000Y-91020357D01*
X52605571Y-90877500D01*
X52462714Y-90806071D01*
X52177000Y-90806071D01*
X52034142Y-90877500D01*
X51962714Y-91020357D01*
X51962714Y-91163214D01*
X52677000Y-91306071D01*
X51534142Y-90806071D02*
X50962714Y-90806071D01*
X51319857Y-90306071D02*
X51319857Y-91591785D01*
X51248428Y-91734642D01*
X51105571Y-91806071D01*
X50962714Y-91806071D01*
X49891285Y-91734642D02*
X50034142Y-91806071D01*
X50319857Y-91806071D01*
X50462714Y-91734642D01*
X50534142Y-91591785D01*
X50534142Y-91020357D01*
X50462714Y-90877500D01*
X50319857Y-90806071D01*
X50034142Y-90806071D01*
X49891285Y-90877500D01*
X49819857Y-91020357D01*
X49819857Y-91163214D01*
X50534142Y-91306071D01*
X48534142Y-91734642D02*
X48677000Y-91806071D01*
X48962714Y-91806071D01*
X49105571Y-91734642D01*
X49177000Y-91663214D01*
X49248428Y-91520357D01*
X49248428Y-91091785D01*
X49177000Y-90948928D01*
X49105571Y-90877500D01*
X48962714Y-90806071D01*
X48677000Y-90806071D01*
X48534142Y-90877500D01*
X48105571Y-90806071D02*
X47534142Y-90806071D01*
X47891285Y-90306071D02*
X47891285Y-91591785D01*
X47819857Y-91734642D01*
X47677000Y-91806071D01*
X47534142Y-91806071D01*
X45251285Y-93666571D02*
X44251285Y-95166571D01*
X44251285Y-93666571D02*
X45251285Y-95166571D01*
X42537000Y-95166571D02*
X42537000Y-93666571D01*
X42037000Y-94738000D01*
X41537000Y-93666571D01*
X41537000Y-95166571D01*
X40179857Y-95166571D02*
X40179857Y-94380857D01*
X40251285Y-94238000D01*
X40394142Y-94166571D01*
X40679857Y-94166571D01*
X40822714Y-94238000D01*
X40179857Y-95095142D02*
X40322714Y-95166571D01*
X40679857Y-95166571D01*
X40822714Y-95095142D01*
X40894142Y-94952285D01*
X40894142Y-94809428D01*
X40822714Y-94666571D01*
X40679857Y-94595142D01*
X40322714Y-94595142D01*
X40179857Y-94523714D01*
X39608428Y-95166571D02*
X38822714Y-94166571D01*
X39608428Y-94166571D02*
X38822714Y-95166571D01*
X36555785Y-93730071D02*
X35555785Y-93730071D01*
X36555785Y-95230071D01*
X35555785Y-95230071D01*
X33841500Y-95230071D02*
X33841500Y-93730071D01*
X33341500Y-94801500D01*
X32841500Y-93730071D01*
X32841500Y-95230071D01*
X32127214Y-95230071D02*
X32127214Y-94230071D01*
X32127214Y-93730071D02*
X32198642Y-93801500D01*
X32127214Y-93872928D01*
X32055785Y-93801500D01*
X32127214Y-93730071D01*
X32127214Y-93872928D01*
X31412928Y-94230071D02*
X31412928Y-95230071D01*
X31412928Y-94372928D02*
X31341500Y-94301500D01*
X31198642Y-94230071D01*
X30984357Y-94230071D01*
X30841500Y-94301500D01*
X30770071Y-94444357D01*
X30770071Y-95230071D01*
X44183785Y-102961285D02*
X44183785Y-103675571D01*
X44683785Y-102175571D02*
X44183785Y-102961285D01*
X43683785Y-102175571D01*
X42040928Y-103675571D02*
X42040928Y-102175571D01*
X41540928Y-103247000D01*
X41040928Y-102175571D01*
X41040928Y-103675571D01*
X40326642Y-103675571D02*
X40326642Y-102675571D01*
X40326642Y-102175571D02*
X40398071Y-102247000D01*
X40326642Y-102318428D01*
X40255214Y-102247000D01*
X40326642Y-102175571D01*
X40326642Y-102318428D01*
X39612357Y-102675571D02*
X39612357Y-103675571D01*
X39612357Y-102818428D02*
X39540928Y-102747000D01*
X39398071Y-102675571D01*
X39183785Y-102675571D01*
X39040928Y-102747000D01*
X38969500Y-102889857D01*
X38969500Y-103675571D01*
X36746285Y-102239071D02*
X35746285Y-103739071D01*
X35746285Y-102239071D02*
X36746285Y-103739071D01*
X34032000Y-103739071D02*
X34032000Y-102239071D01*
X33532000Y-103310500D01*
X33032000Y-102239071D01*
X33032000Y-103739071D01*
X32317714Y-103739071D02*
X32317714Y-102739071D01*
X32317714Y-102239071D02*
X32389142Y-102310500D01*
X32317714Y-102381928D01*
X32246285Y-102310500D01*
X32317714Y-102239071D01*
X32317714Y-102381928D01*
X31603428Y-102739071D02*
X31603428Y-103739071D01*
X31603428Y-102881928D02*
X31532000Y-102810500D01*
X31389142Y-102739071D01*
X31174857Y-102739071D01*
X31032000Y-102810500D01*
X30960571Y-102953357D01*
X30960571Y-103739071D01*
X44163571Y-108195000D02*
X43449285Y-108195000D01*
X44306428Y-108623571D02*
X43806428Y-107123571D01*
X43306428Y-108623571D01*
X42592142Y-108623571D02*
X42735000Y-108552142D01*
X42806428Y-108409285D01*
X42806428Y-107123571D01*
X42163571Y-107623571D02*
X41877857Y-108623571D01*
X41592142Y-107909285D01*
X41306428Y-108623571D01*
X41020714Y-107623571D01*
X39806428Y-108623571D02*
X39806428Y-107837857D01*
X39877857Y-107695000D01*
X40020714Y-107623571D01*
X40306428Y-107623571D01*
X40449285Y-107695000D01*
X39806428Y-108552142D02*
X39949285Y-108623571D01*
X40306428Y-108623571D01*
X40449285Y-108552142D01*
X40520714Y-108409285D01*
X40520714Y-108266428D01*
X40449285Y-108123571D01*
X40306428Y-108052142D01*
X39949285Y-108052142D01*
X39806428Y-107980714D01*
X39235000Y-107623571D02*
X38877857Y-108623571D01*
X38520714Y-107623571D02*
X38877857Y-108623571D01*
X39020714Y-108980714D01*
X39092142Y-109052142D01*
X39235000Y-109123571D01*
X38020714Y-108552142D02*
X37877857Y-108623571D01*
X37592142Y-108623571D01*
X37449285Y-108552142D01*
X37377857Y-108409285D01*
X37377857Y-108337857D01*
X37449285Y-108195000D01*
X37592142Y-108123571D01*
X37806428Y-108123571D01*
X37949285Y-108052142D01*
X38020714Y-107909285D01*
X38020714Y-107837857D01*
X37949285Y-107695000D01*
X37806428Y-107623571D01*
X37592142Y-107623571D01*
X37449285Y-107695000D01*
X35306428Y-107123571D02*
X35020714Y-107123571D01*
X34877857Y-107195000D01*
X34735000Y-107337857D01*
X34663571Y-107623571D01*
X34663571Y-108123571D01*
X34735000Y-108409285D01*
X34877857Y-108552142D01*
X35020714Y-108623571D01*
X35306428Y-108623571D01*
X35449285Y-108552142D01*
X35592142Y-108409285D01*
X35663571Y-108123571D01*
X35663571Y-107623571D01*
X35592142Y-107337857D01*
X35449285Y-107195000D01*
X35306428Y-107123571D01*
X34020714Y-107623571D02*
X34020714Y-108623571D01*
X34020714Y-107766428D02*
X33949285Y-107695000D01*
X33806428Y-107623571D01*
X33592142Y-107623571D01*
X33449285Y-107695000D01*
X33377857Y-107837857D01*
X33377857Y-108623571D01*
X45520714Y-110602142D02*
X44377857Y-110602142D01*
X41377857Y-110602142D02*
X40235000Y-110602142D01*
X40806428Y-111173571D02*
X40806428Y-110030714D01*
X37235000Y-110602142D02*
X36092142Y-110602142D01*
X33092142Y-110602142D02*
X31949285Y-110602142D01*
X32520714Y-111173571D02*
X32520714Y-110030714D01*
X52470714Y-104213357D02*
X51970714Y-104213357D01*
X51756428Y-104999071D02*
X52470714Y-104999071D01*
X52470714Y-103499071D01*
X51756428Y-103499071D01*
X50327857Y-104999071D02*
X51185000Y-104999071D01*
X50756428Y-104999071D02*
X50756428Y-103499071D01*
X50899285Y-103713357D01*
X51042142Y-103856214D01*
X51185000Y-103927642D01*
X53399285Y-107549071D02*
X53399285Y-106049071D01*
X52827857Y-106049071D01*
X52685000Y-106120500D01*
X52613571Y-106191928D01*
X52542142Y-106334785D01*
X52542142Y-106549071D01*
X52613571Y-106691928D01*
X52685000Y-106763357D01*
X52827857Y-106834785D01*
X53399285Y-106834785D01*
X51256428Y-107549071D02*
X51256428Y-106763357D01*
X51327857Y-106620500D01*
X51470714Y-106549071D01*
X51756428Y-106549071D01*
X51899285Y-106620500D01*
X51256428Y-107477642D02*
X51399285Y-107549071D01*
X51756428Y-107549071D01*
X51899285Y-107477642D01*
X51970714Y-107334785D01*
X51970714Y-107191928D01*
X51899285Y-107049071D01*
X51756428Y-106977642D01*
X51399285Y-106977642D01*
X51256428Y-106906214D01*
X50542142Y-107549071D02*
X50542142Y-106549071D01*
X50542142Y-106834785D02*
X50470714Y-106691928D01*
X50399285Y-106620500D01*
X50256428Y-106549071D01*
X50113571Y-106549071D01*
X49827857Y-106549071D02*
X49256428Y-106549071D01*
X49613571Y-106049071D02*
X49613571Y-107334785D01*
X49542142Y-107477642D01*
X49399285Y-107549071D01*
X49256428Y-107549071D01*
X54077857Y-109527642D02*
X52935000Y-109527642D01*
X49935000Y-109527642D02*
X48792142Y-109527642D01*
X49363571Y-110099071D02*
X49363571Y-108956214D01*
X60789214Y-104149857D02*
X60289214Y-104149857D01*
X60074928Y-104935571D02*
X60789214Y-104935571D01*
X60789214Y-103435571D01*
X60074928Y-103435571D01*
X59146357Y-103435571D02*
X59003500Y-103435571D01*
X58860642Y-103507000D01*
X58789214Y-103578428D01*
X58717785Y-103721285D01*
X58646357Y-104007000D01*
X58646357Y-104364142D01*
X58717785Y-104649857D01*
X58789214Y-104792714D01*
X58860642Y-104864142D01*
X59003500Y-104935571D01*
X59146357Y-104935571D01*
X59289214Y-104864142D01*
X59360642Y-104792714D01*
X59432071Y-104649857D01*
X59503500Y-104364142D01*
X59503500Y-104007000D01*
X59432071Y-103721285D01*
X59360642Y-103578428D01*
X59289214Y-103507000D01*
X59146357Y-103435571D01*
X61717785Y-107485571D02*
X61717785Y-105985571D01*
X61146357Y-105985571D01*
X61003500Y-106057000D01*
X60932071Y-106128428D01*
X60860642Y-106271285D01*
X60860642Y-106485571D01*
X60932071Y-106628428D01*
X61003500Y-106699857D01*
X61146357Y-106771285D01*
X61717785Y-106771285D01*
X59574928Y-107485571D02*
X59574928Y-106699857D01*
X59646357Y-106557000D01*
X59789214Y-106485571D01*
X60074928Y-106485571D01*
X60217785Y-106557000D01*
X59574928Y-107414142D02*
X59717785Y-107485571D01*
X60074928Y-107485571D01*
X60217785Y-107414142D01*
X60289214Y-107271285D01*
X60289214Y-107128428D01*
X60217785Y-106985571D01*
X60074928Y-106914142D01*
X59717785Y-106914142D01*
X59574928Y-106842714D01*
X58860642Y-107485571D02*
X58860642Y-106485571D01*
X58860642Y-106771285D02*
X58789214Y-106628428D01*
X58717785Y-106557000D01*
X58574928Y-106485571D01*
X58432071Y-106485571D01*
X58146357Y-106485571D02*
X57574928Y-106485571D01*
X57932071Y-105985571D02*
X57932071Y-107271285D01*
X57860642Y-107414142D01*
X57717785Y-107485571D01*
X57574928Y-107485571D01*
X62396357Y-109464142D02*
X61253500Y-109464142D01*
X58253500Y-109464142D02*
X57110642Y-109464142D01*
X57682071Y-110035571D02*
X57682071Y-108892714D01*
X69298214Y-104276857D02*
X68798214Y-104276857D01*
X68583928Y-105062571D02*
X69298214Y-105062571D01*
X69298214Y-103562571D01*
X68583928Y-103562571D01*
X67155357Y-105062571D02*
X68012500Y-105062571D01*
X67583928Y-105062571D02*
X67583928Y-103562571D01*
X67726785Y-103776857D01*
X67869642Y-103919714D01*
X68012500Y-103991142D01*
X69548214Y-107469714D02*
X69619642Y-107541142D01*
X69833928Y-107612571D01*
X69976785Y-107612571D01*
X70191071Y-107541142D01*
X70333928Y-107398285D01*
X70405357Y-107255428D01*
X70476785Y-106969714D01*
X70476785Y-106755428D01*
X70405357Y-106469714D01*
X70333928Y-106326857D01*
X70191071Y-106184000D01*
X69976785Y-106112571D01*
X69833928Y-106112571D01*
X69619642Y-106184000D01*
X69548214Y-106255428D01*
X68691071Y-107612571D02*
X68833928Y-107541142D01*
X68905357Y-107469714D01*
X68976785Y-107326857D01*
X68976785Y-106898285D01*
X68905357Y-106755428D01*
X68833928Y-106684000D01*
X68691071Y-106612571D01*
X68476785Y-106612571D01*
X68333928Y-106684000D01*
X68262500Y-106755428D01*
X68191071Y-106898285D01*
X68191071Y-107326857D01*
X68262500Y-107469714D01*
X68333928Y-107541142D01*
X68476785Y-107612571D01*
X68691071Y-107612571D01*
X67333928Y-107612571D02*
X67476785Y-107541142D01*
X67548214Y-107469714D01*
X67619642Y-107326857D01*
X67619642Y-106898285D01*
X67548214Y-106755428D01*
X67476785Y-106684000D01*
X67333928Y-106612571D01*
X67119642Y-106612571D01*
X66976785Y-106684000D01*
X66905357Y-106755428D01*
X66833928Y-106898285D01*
X66833928Y-107326857D01*
X66905357Y-107469714D01*
X66976785Y-107541142D01*
X67119642Y-107612571D01*
X67333928Y-107612571D01*
X65976785Y-107612571D02*
X66119642Y-107541142D01*
X66191071Y-107398285D01*
X66191071Y-106112571D01*
X70905357Y-109591142D02*
X69762500Y-109591142D01*
X66762500Y-109591142D02*
X65619642Y-109591142D01*
X66191071Y-110162571D02*
X66191071Y-109019714D01*
X77426214Y-104276857D02*
X76926214Y-104276857D01*
X76711928Y-105062571D02*
X77426214Y-105062571D01*
X77426214Y-103562571D01*
X76711928Y-103562571D01*
X75783357Y-103562571D02*
X75640500Y-103562571D01*
X75497642Y-103634000D01*
X75426214Y-103705428D01*
X75354785Y-103848285D01*
X75283357Y-104134000D01*
X75283357Y-104491142D01*
X75354785Y-104776857D01*
X75426214Y-104919714D01*
X75497642Y-104991142D01*
X75640500Y-105062571D01*
X75783357Y-105062571D01*
X75926214Y-104991142D01*
X75997642Y-104919714D01*
X76069071Y-104776857D01*
X76140500Y-104491142D01*
X76140500Y-104134000D01*
X76069071Y-103848285D01*
X75997642Y-103705428D01*
X75926214Y-103634000D01*
X75783357Y-103562571D01*
X77676214Y-107469714D02*
X77747642Y-107541142D01*
X77961928Y-107612571D01*
X78104785Y-107612571D01*
X78319071Y-107541142D01*
X78461928Y-107398285D01*
X78533357Y-107255428D01*
X78604785Y-106969714D01*
X78604785Y-106755428D01*
X78533357Y-106469714D01*
X78461928Y-106326857D01*
X78319071Y-106184000D01*
X78104785Y-106112571D01*
X77961928Y-106112571D01*
X77747642Y-106184000D01*
X77676214Y-106255428D01*
X76819071Y-107612571D02*
X76961928Y-107541142D01*
X77033357Y-107469714D01*
X77104785Y-107326857D01*
X77104785Y-106898285D01*
X77033357Y-106755428D01*
X76961928Y-106684000D01*
X76819071Y-106612571D01*
X76604785Y-106612571D01*
X76461928Y-106684000D01*
X76390500Y-106755428D01*
X76319071Y-106898285D01*
X76319071Y-107326857D01*
X76390500Y-107469714D01*
X76461928Y-107541142D01*
X76604785Y-107612571D01*
X76819071Y-107612571D01*
X75461928Y-107612571D02*
X75604785Y-107541142D01*
X75676214Y-107469714D01*
X75747642Y-107326857D01*
X75747642Y-106898285D01*
X75676214Y-106755428D01*
X75604785Y-106684000D01*
X75461928Y-106612571D01*
X75247642Y-106612571D01*
X75104785Y-106684000D01*
X75033357Y-106755428D01*
X74961928Y-106898285D01*
X74961928Y-107326857D01*
X75033357Y-107469714D01*
X75104785Y-107541142D01*
X75247642Y-107612571D01*
X75461928Y-107612571D01*
X74104785Y-107612571D02*
X74247642Y-107541142D01*
X74319071Y-107398285D01*
X74319071Y-106112571D01*
X79033357Y-109591142D02*
X77890500Y-109591142D01*
X74890500Y-109591142D02*
X73747642Y-109591142D01*
X74319071Y-110162571D02*
X74319071Y-109019714D01*
X65948500Y-100794357D02*
X66448500Y-100794357D01*
X66448500Y-101580071D02*
X66448500Y-100080071D01*
X65734214Y-100080071D01*
X64519928Y-101580071D02*
X64519928Y-100794357D01*
X64591357Y-100651500D01*
X64734214Y-100580071D01*
X65019928Y-100580071D01*
X65162785Y-100651500D01*
X64519928Y-101508642D02*
X64662785Y-101580071D01*
X65019928Y-101580071D01*
X65162785Y-101508642D01*
X65234214Y-101365785D01*
X65234214Y-101222928D01*
X65162785Y-101080071D01*
X65019928Y-101008642D01*
X64662785Y-101008642D01*
X64519928Y-100937214D01*
X63805642Y-100580071D02*
X63805642Y-101580071D01*
X63805642Y-100722928D02*
X63734214Y-100651500D01*
X63591357Y-100580071D01*
X63377071Y-100580071D01*
X63234214Y-100651500D01*
X63162785Y-100794357D01*
X63162785Y-101580071D01*
X62519928Y-101508642D02*
X62377071Y-101580071D01*
X62091357Y-101580071D01*
X61948500Y-101508642D01*
X61877071Y-101365785D01*
X61877071Y-101294357D01*
X61948500Y-101151500D01*
X62091357Y-101080071D01*
X62305642Y-101080071D01*
X62448500Y-101008642D01*
X62519928Y-100865785D01*
X62519928Y-100794357D01*
X62448500Y-100651500D01*
X62305642Y-100580071D01*
X62091357Y-100580071D01*
X61948500Y-100651500D01*
X42183714Y-22435357D02*
X41683714Y-22435357D01*
X41469428Y-23221071D02*
X42183714Y-23221071D01*
X42183714Y-21721071D01*
X41469428Y-21721071D01*
X40040857Y-23221071D02*
X40898000Y-23221071D01*
X40469428Y-23221071D02*
X40469428Y-21721071D01*
X40612285Y-21935357D01*
X40755142Y-22078214D01*
X40898000Y-22149642D01*
X22117857Y-48811785D02*
X22117857Y-49311785D01*
X22903571Y-49526071D02*
X22903571Y-48811785D01*
X21403571Y-48811785D01*
X21403571Y-49526071D01*
X21403571Y-50454642D02*
X21403571Y-50597500D01*
X21475000Y-50740357D01*
X21546428Y-50811785D01*
X21689285Y-50883214D01*
X21975000Y-50954642D01*
X22332142Y-50954642D01*
X22617857Y-50883214D01*
X22760714Y-50811785D01*
X22832142Y-50740357D01*
X22903571Y-50597500D01*
X22903571Y-50454642D01*
X22832142Y-50311785D01*
X22760714Y-50240357D01*
X22617857Y-50168928D01*
X22332142Y-50097500D01*
X21975000Y-50097500D01*
X21689285Y-50168928D01*
X21546428Y-50240357D01*
X21475000Y-50311785D01*
X21403571Y-50454642D01*
X115383571Y-96536285D02*
X116883571Y-97536285D01*
X115383571Y-97536285D02*
X116883571Y-96536285D01*
X116455000Y-99179142D02*
X116455000Y-99893428D01*
X116883571Y-99036285D02*
X115383571Y-99536285D01*
X116883571Y-100036285D01*
X116883571Y-100393428D02*
X115883571Y-101179142D01*
X115883571Y-100393428D02*
X116883571Y-101179142D01*
X116883571Y-101750571D02*
X115883571Y-101750571D01*
X115383571Y-101750571D02*
X115455000Y-101679142D01*
X115526428Y-101750571D01*
X115455000Y-101822000D01*
X115383571Y-101750571D01*
X115526428Y-101750571D01*
X116812142Y-102393428D02*
X116883571Y-102536285D01*
X116883571Y-102822000D01*
X116812142Y-102964857D01*
X116669285Y-103036285D01*
X116597857Y-103036285D01*
X116455000Y-102964857D01*
X116383571Y-102822000D01*
X116383571Y-102607714D01*
X116312142Y-102464857D01*
X116169285Y-102393428D01*
X116097857Y-102393428D01*
X115955000Y-102464857D01*
X115883571Y-102607714D01*
X115883571Y-102822000D01*
X115955000Y-102964857D01*
X116232785Y-72144285D02*
X116947071Y-72144285D01*
X115447071Y-71644285D02*
X116232785Y-72144285D01*
X115447071Y-72644285D01*
X116518500Y-74215714D02*
X116518500Y-74930000D01*
X116947071Y-74072857D02*
X115447071Y-74572857D01*
X116947071Y-75072857D01*
X116947071Y-75430000D02*
X115947071Y-76215714D01*
X115947071Y-75430000D02*
X116947071Y-76215714D01*
X116947071Y-76787142D02*
X115947071Y-76787142D01*
X115447071Y-76787142D02*
X115518500Y-76715714D01*
X115589928Y-76787142D01*
X115518500Y-76858571D01*
X115447071Y-76787142D01*
X115589928Y-76787142D01*
X116875642Y-77430000D02*
X116947071Y-77572857D01*
X116947071Y-77858571D01*
X116875642Y-78001428D01*
X116732785Y-78072857D01*
X116661357Y-78072857D01*
X116518500Y-78001428D01*
X116447071Y-77858571D01*
X116447071Y-77644285D01*
X116375642Y-77501428D01*
X116232785Y-77430000D01*
X116161357Y-77430000D01*
X116018500Y-77501428D01*
X115947071Y-77644285D01*
X115947071Y-77858571D01*
X116018500Y-78001428D01*
X115891571Y-35576285D02*
X115891571Y-36576285D01*
X117391571Y-35576285D01*
X117391571Y-36576285D01*
X116963000Y-38219142D02*
X116963000Y-38933428D01*
X117391571Y-38076285D02*
X115891571Y-38576285D01*
X117391571Y-39076285D01*
X117391571Y-39433428D02*
X116391571Y-40219142D01*
X116391571Y-39433428D02*
X117391571Y-40219142D01*
X117391571Y-40790571D02*
X116391571Y-40790571D01*
X115891571Y-40790571D02*
X115963000Y-40719142D01*
X116034428Y-40790571D01*
X115963000Y-40862000D01*
X115891571Y-40790571D01*
X116034428Y-40790571D01*
X117320142Y-41433428D02*
X117391571Y-41576285D01*
X117391571Y-41862000D01*
X117320142Y-42004857D01*
X117177285Y-42076285D01*
X117105857Y-42076285D01*
X116963000Y-42004857D01*
X116891571Y-41862000D01*
X116891571Y-41647714D01*
X116820142Y-41504857D01*
X116677285Y-41433428D01*
X116605857Y-41433428D01*
X116463000Y-41504857D01*
X116391571Y-41647714D01*
X116391571Y-41862000D01*
X116463000Y-42004857D01*
X79838857Y-35794071D02*
X79838857Y-34294071D01*
X79838857Y-35008357D02*
X78981714Y-35008357D01*
X78981714Y-35794071D02*
X78981714Y-34294071D01*
X77696000Y-35722642D02*
X77838857Y-35794071D01*
X78124571Y-35794071D01*
X78267428Y-35722642D01*
X78338857Y-35579785D01*
X78338857Y-35008357D01*
X78267428Y-34865500D01*
X78124571Y-34794071D01*
X77838857Y-34794071D01*
X77696000Y-34865500D01*
X77624571Y-35008357D01*
X77624571Y-35151214D01*
X78338857Y-35294071D01*
X76338857Y-35794071D02*
X76338857Y-35008357D01*
X76410285Y-34865500D01*
X76553142Y-34794071D01*
X76838857Y-34794071D01*
X76981714Y-34865500D01*
X76338857Y-35722642D02*
X76481714Y-35794071D01*
X76838857Y-35794071D01*
X76981714Y-35722642D01*
X77053142Y-35579785D01*
X77053142Y-35436928D01*
X76981714Y-35294071D01*
X76838857Y-35222642D01*
X76481714Y-35222642D01*
X76338857Y-35151214D01*
X75838857Y-34794071D02*
X75267428Y-34794071D01*
X75624571Y-34294071D02*
X75624571Y-35579785D01*
X75553142Y-35722642D01*
X75410285Y-35794071D01*
X75267428Y-35794071D01*
X74196000Y-35722642D02*
X74338857Y-35794071D01*
X74624571Y-35794071D01*
X74767428Y-35722642D01*
X74838857Y-35579785D01*
X74838857Y-35008357D01*
X74767428Y-34865500D01*
X74624571Y-34794071D01*
X74338857Y-34794071D01*
X74196000Y-34865500D01*
X74124571Y-35008357D01*
X74124571Y-35151214D01*
X74838857Y-35294071D01*
X73481714Y-35794071D02*
X73481714Y-34794071D01*
X73481714Y-35079785D02*
X73410285Y-34936928D01*
X73338857Y-34865500D01*
X73196000Y-34794071D01*
X73053142Y-34794071D01*
X72624571Y-35722642D02*
X72481714Y-35794071D01*
X72196000Y-35794071D01*
X72053142Y-35722642D01*
X71981714Y-35579785D01*
X71981714Y-35508357D01*
X72053142Y-35365500D01*
X72196000Y-35294071D01*
X72410285Y-35294071D01*
X72553142Y-35222642D01*
X72624571Y-35079785D01*
X72624571Y-35008357D01*
X72553142Y-34865500D01*
X72410285Y-34794071D01*
X72196000Y-34794071D01*
X72053142Y-34865500D01*
X54153357Y-26669071D02*
X54867642Y-26669071D01*
X54939071Y-27383357D01*
X54867642Y-27311928D01*
X54724785Y-27240500D01*
X54367642Y-27240500D01*
X54224785Y-27311928D01*
X54153357Y-27383357D01*
X54081928Y-27526214D01*
X54081928Y-27883357D01*
X54153357Y-28026214D01*
X54224785Y-28097642D01*
X54367642Y-28169071D01*
X54724785Y-28169071D01*
X54867642Y-28097642D01*
X54939071Y-28026214D01*
X53653357Y-26669071D02*
X53153357Y-28169071D01*
X52653357Y-26669071D01*
X51010500Y-28169071D02*
X51010500Y-26669071D01*
X50296214Y-27169071D02*
X50296214Y-28169071D01*
X50296214Y-27311928D02*
X50224785Y-27240500D01*
X50081928Y-27169071D01*
X49867642Y-27169071D01*
X49724785Y-27240500D01*
X49653357Y-27383357D01*
X49653357Y-28169071D01*
X54903357Y-30147642D02*
X53760500Y-30147642D01*
X50760500Y-30147642D02*
X49617642Y-30147642D01*
X50189071Y-30719071D02*
X50189071Y-29576214D01*
X66186714Y-26811857D02*
X65686714Y-26811857D01*
X65472428Y-27597571D02*
X66186714Y-27597571D01*
X66186714Y-26097571D01*
X65472428Y-26097571D01*
X64043857Y-27597571D02*
X64901000Y-27597571D01*
X64472428Y-27597571D02*
X64472428Y-26097571D01*
X64615285Y-26311857D01*
X64758142Y-26454714D01*
X64901000Y-26526142D01*
X67793857Y-29576142D02*
X66651000Y-29576142D01*
X67222428Y-30147571D02*
X67222428Y-29004714D01*
X63651000Y-29576142D02*
X62508142Y-29576142D01*
X78569214Y-26811857D02*
X78069214Y-26811857D01*
X77854928Y-27597571D02*
X78569214Y-27597571D01*
X78569214Y-26097571D01*
X77854928Y-26097571D01*
X76926357Y-26097571D02*
X76783500Y-26097571D01*
X76640642Y-26169000D01*
X76569214Y-26240428D01*
X76497785Y-26383285D01*
X76426357Y-26669000D01*
X76426357Y-27026142D01*
X76497785Y-27311857D01*
X76569214Y-27454714D01*
X76640642Y-27526142D01*
X76783500Y-27597571D01*
X76926357Y-27597571D01*
X77069214Y-27526142D01*
X77140642Y-27454714D01*
X77212071Y-27311857D01*
X77283500Y-27026142D01*
X77283500Y-26669000D01*
X77212071Y-26383285D01*
X77140642Y-26240428D01*
X77069214Y-26169000D01*
X76926357Y-26097571D01*
X80176357Y-29576142D02*
X79033500Y-29576142D01*
X79604928Y-30147571D02*
X79604928Y-29004714D01*
X76033500Y-29576142D02*
X74890642Y-29576142D01*
X88463285Y-27383357D02*
X88249000Y-27454785D01*
X88177571Y-27526214D01*
X88106142Y-27669071D01*
X88106142Y-27883357D01*
X88177571Y-28026214D01*
X88249000Y-28097642D01*
X88391857Y-28169071D01*
X88963285Y-28169071D01*
X88963285Y-26669071D01*
X88463285Y-26669071D01*
X88320428Y-26740500D01*
X88249000Y-26811928D01*
X88177571Y-26954785D01*
X88177571Y-27097642D01*
X88249000Y-27240500D01*
X88320428Y-27311928D01*
X88463285Y-27383357D01*
X88963285Y-27383357D01*
X86891857Y-28097642D02*
X87034714Y-28169071D01*
X87320428Y-28169071D01*
X87463285Y-28097642D01*
X87534714Y-27954785D01*
X87534714Y-27383357D01*
X87463285Y-27240500D01*
X87320428Y-27169071D01*
X87034714Y-27169071D01*
X86891857Y-27240500D01*
X86820428Y-27383357D01*
X86820428Y-27526214D01*
X87534714Y-27669071D01*
X85534714Y-28169071D02*
X85534714Y-26669071D01*
X85534714Y-28097642D02*
X85677571Y-28169071D01*
X85963285Y-28169071D01*
X86106142Y-28097642D01*
X86177571Y-28026214D01*
X86249000Y-27883357D01*
X86249000Y-27454785D01*
X86177571Y-27311928D01*
X86106142Y-27240500D01*
X85963285Y-27169071D01*
X85677571Y-27169071D01*
X85534714Y-27240500D01*
X89891857Y-30147642D02*
X88749000Y-30147642D01*
X89320428Y-30719071D02*
X89320428Y-29576214D01*
X85749000Y-30147642D02*
X84606142Y-30147642D01*
X103250428Y-28037071D02*
X103250428Y-26537071D01*
X102679000Y-26537071D01*
X102536142Y-26608500D01*
X102464714Y-26679928D01*
X102393285Y-26822785D01*
X102393285Y-27037071D01*
X102464714Y-27179928D01*
X102536142Y-27251357D01*
X102679000Y-27322785D01*
X103250428Y-27322785D01*
X101536142Y-28037071D02*
X101679000Y-27965642D01*
X101750428Y-27894214D01*
X101821857Y-27751357D01*
X101821857Y-27322785D01*
X101750428Y-27179928D01*
X101679000Y-27108500D01*
X101536142Y-27037071D01*
X101321857Y-27037071D01*
X101179000Y-27108500D01*
X101107571Y-27179928D01*
X101036142Y-27322785D01*
X101036142Y-27751357D01*
X101107571Y-27894214D01*
X101179000Y-27965642D01*
X101321857Y-28037071D01*
X101536142Y-28037071D01*
X100536142Y-27037071D02*
X100250428Y-28037071D01*
X99964714Y-27322785D01*
X99679000Y-28037071D01*
X99393285Y-27037071D01*
X98250428Y-27965642D02*
X98393285Y-28037071D01*
X98679000Y-28037071D01*
X98821857Y-27965642D01*
X98893285Y-27822785D01*
X98893285Y-27251357D01*
X98821857Y-27108500D01*
X98679000Y-27037071D01*
X98393285Y-27037071D01*
X98250428Y-27108500D01*
X98179000Y-27251357D01*
X98179000Y-27394214D01*
X98893285Y-27537071D01*
X97536142Y-28037071D02*
X97536142Y-27037071D01*
X97536142Y-27322785D02*
X97464714Y-27179928D01*
X97393285Y-27108500D01*
X97250428Y-27037071D01*
X97107571Y-27037071D01*
X95464714Y-28037071D02*
X95464714Y-26537071D01*
X94750428Y-27037071D02*
X94750428Y-28037071D01*
X94750428Y-27179928D02*
X94679000Y-27108500D01*
X94536142Y-27037071D01*
X94321857Y-27037071D01*
X94179000Y-27108500D01*
X94107571Y-27251357D01*
X94107571Y-28037071D01*
X101893285Y-30015642D02*
X100750428Y-30015642D01*
X96607571Y-30015642D02*
X95464714Y-30015642D01*
X96036142Y-30587071D02*
X96036142Y-29444214D01*
X102607571Y-33137071D02*
X103464714Y-33137071D01*
X103036142Y-33137071D02*
X103036142Y-31637071D01*
X103179000Y-31851357D01*
X103321857Y-31994214D01*
X103464714Y-32065642D01*
X102036142Y-31779928D02*
X101964714Y-31708500D01*
X101821857Y-31637071D01*
X101464714Y-31637071D01*
X101321857Y-31708500D01*
X101250428Y-31779928D01*
X101179000Y-31922785D01*
X101179000Y-32065642D01*
X101250428Y-32279928D01*
X102107571Y-33137071D01*
X101179000Y-33137071D01*
X100750428Y-31637071D02*
X100250428Y-33137071D01*
X99750428Y-31637071D01*
X99250428Y-32565642D02*
X98107571Y-32565642D01*
X97464714Y-31779928D02*
X97393285Y-31708500D01*
X97250428Y-31637071D01*
X96893285Y-31637071D01*
X96750428Y-31708500D01*
X96679000Y-31779928D01*
X96607571Y-31922785D01*
X96607571Y-32065642D01*
X96679000Y-32279928D01*
X97536142Y-33137071D01*
X96607571Y-33137071D01*
X95321857Y-32137071D02*
X95321857Y-33137071D01*
X95679000Y-31565642D02*
X96036142Y-32637071D01*
X95107571Y-32637071D01*
X94750428Y-31637071D02*
X94250428Y-33137071D01*
X93750428Y-31637071D01*
D10*
X20383500Y-115436514D02*
X20383500Y-60436487D01*
X35623500Y-115436500D02*
X20383500Y-115436500D01*
X35673500Y-116436500D02*
X35673500Y-115436500D01*
X20423500Y-116436500D02*
X35673500Y-116436500D01*
X20383500Y-140936537D02*
X20383500Y-116436468D01*
X89673511Y-140896500D02*
X20383500Y-140896500D01*
X89673500Y-116436500D02*
X89673500Y-140936500D01*
X74923500Y-116436500D02*
X89673500Y-116436500D01*
X74923500Y-115436500D02*
X74923500Y-116436500D01*
X89673500Y-115436500D02*
X74923500Y-115436500D01*
X89673500Y-60436500D02*
X89673500Y-115436500D01*
X68173463Y-60396500D02*
X89673526Y-60396500D01*
X66153500Y-58416500D02*
X68173500Y-60436500D01*
X33173476Y-58396500D02*
X66173522Y-58396500D01*
X31173500Y-60436500D02*
X33173500Y-58436500D01*
X20383500Y-60396500D02*
X31173574Y-60396500D01*
X65302983Y-60896500D02*
G75*
G03X65302983Y-60896500I-1739483J0D01*
G01*
D13*
X106050000Y-104600000D02*
X108850000Y-104600000D01*
X108850000Y-104600000D02*
X108850000Y-102600000D01*
X108850000Y-102600000D02*
X106050000Y-102600000D01*
X106050000Y-102600000D02*
X106050000Y-104600000D01*
X39150800Y-27958000D02*
X39150800Y-25158000D01*
X39150800Y-25158000D02*
X37150800Y-25158000D01*
X37150800Y-25158000D02*
X37150800Y-27958000D01*
X37150800Y-27958000D02*
X39150800Y-27958000D01*
X31780700Y-45443900D02*
X28980700Y-45443900D01*
X28980700Y-45443900D02*
X28980700Y-47443900D01*
X28980700Y-47443900D02*
X31780700Y-47443900D01*
X31780700Y-47443900D02*
X31780700Y-45443900D01*
X106133200Y-79232000D02*
X108933200Y-79232000D01*
X108933200Y-79232000D02*
X108933200Y-77232000D01*
X108933200Y-77232000D02*
X106133200Y-77232000D01*
X106133200Y-77232000D02*
X106133200Y-79232000D01*
X106184000Y-54848000D02*
X108984000Y-54848000D01*
X108984000Y-54848000D02*
X108984000Y-52848000D01*
X108984000Y-52848000D02*
X106184000Y-52848000D01*
X106184000Y-52848000D02*
X106184000Y-54848000D01*
X51355500Y-77234000D02*
X51355500Y-73134000D01*
X51355500Y-73134000D02*
X49355500Y-73134000D01*
X49355500Y-73134000D02*
X49355500Y-77234000D01*
X49355500Y-77234000D02*
X51355500Y-77234000D01*
X49155500Y-76484000D02*
X48855500Y-76784000D01*
X48855500Y-76784000D02*
X48855500Y-76184000D01*
X49155500Y-76484000D02*
X48855500Y-76184000D01*
D10*
X52355595Y-55522880D02*
X52355595Y-56332404D01*
X52307976Y-56427642D01*
X52260357Y-56475261D01*
X52165119Y-56522880D01*
X51974642Y-56522880D01*
X51879404Y-56475261D01*
X51831785Y-56427642D01*
X51784166Y-56332404D01*
X51784166Y-55522880D01*
X50784166Y-56522880D02*
X51355595Y-56522880D01*
X51069880Y-56522880D02*
X51069880Y-55522880D01*
X51165119Y-55665738D01*
X51260357Y-55760976D01*
X51355595Y-55808595D01*
X49831785Y-56522880D02*
X50403214Y-56522880D01*
X50117500Y-56522880D02*
X50117500Y-55522880D01*
X50212738Y-55665738D01*
X50307976Y-55760976D01*
X50403214Y-55808595D01*
X108283333Y-104852380D02*
X108283333Y-105566666D01*
X108330952Y-105709523D01*
X108426190Y-105804761D01*
X108569047Y-105852380D01*
X108664285Y-105852380D01*
X107807142Y-105852380D02*
X107807142Y-104852380D01*
X107426190Y-104852380D01*
X107330952Y-104900000D01*
X107283333Y-104947619D01*
X107235714Y-105042857D01*
X107235714Y-105185714D01*
X107283333Y-105280952D01*
X107330952Y-105328571D01*
X107426190Y-105376190D01*
X107807142Y-105376190D01*
X106378571Y-105185714D02*
X106378571Y-105852380D01*
X106616666Y-104804761D02*
X106854761Y-105519047D01*
X106235714Y-105519047D01*
X39403180Y-25724666D02*
X40117466Y-25724666D01*
X40260323Y-25677047D01*
X40355561Y-25581809D01*
X40403180Y-25438952D01*
X40403180Y-25343714D01*
X40403180Y-26200857D02*
X39403180Y-26200857D01*
X39403180Y-26581809D01*
X39450800Y-26677047D01*
X39498419Y-26724666D01*
X39593657Y-26772285D01*
X39736514Y-26772285D01*
X39831752Y-26724666D01*
X39879371Y-26677047D01*
X39926990Y-26581809D01*
X39926990Y-26200857D01*
X39403180Y-27105619D02*
X39403180Y-27772285D01*
X40403180Y-27343714D01*
X31214033Y-44096280D02*
X31214033Y-44810566D01*
X31261652Y-44953423D01*
X31356890Y-45048661D01*
X31499747Y-45096280D01*
X31594985Y-45096280D01*
X30737842Y-45096280D02*
X30737842Y-44096280D01*
X30356890Y-44096280D01*
X30261652Y-44143900D01*
X30214033Y-44191519D01*
X30166414Y-44286757D01*
X30166414Y-44429614D01*
X30214033Y-44524852D01*
X30261652Y-44572471D01*
X30356890Y-44620090D01*
X30737842Y-44620090D01*
X29833080Y-44096280D02*
X29214033Y-44096280D01*
X29547366Y-44477233D01*
X29404509Y-44477233D01*
X29309271Y-44524852D01*
X29261652Y-44572471D01*
X29214033Y-44667709D01*
X29214033Y-44905804D01*
X29261652Y-45001042D01*
X29309271Y-45048661D01*
X29404509Y-45096280D01*
X29690223Y-45096280D01*
X29785461Y-45048661D01*
X29833080Y-45001042D01*
X108366533Y-79484380D02*
X108366533Y-80198666D01*
X108414152Y-80341523D01*
X108509390Y-80436761D01*
X108652247Y-80484380D01*
X108747485Y-80484380D01*
X107890342Y-80484380D02*
X107890342Y-79484380D01*
X107509390Y-79484380D01*
X107414152Y-79532000D01*
X107366533Y-79579619D01*
X107318914Y-79674857D01*
X107318914Y-79817714D01*
X107366533Y-79912952D01*
X107414152Y-79960571D01*
X107509390Y-80008190D01*
X107890342Y-80008190D01*
X106414152Y-79484380D02*
X106890342Y-79484380D01*
X106937961Y-79960571D01*
X106890342Y-79912952D01*
X106795104Y-79865333D01*
X106557009Y-79865333D01*
X106461771Y-79912952D01*
X106414152Y-79960571D01*
X106366533Y-80055809D01*
X106366533Y-80293904D01*
X106414152Y-80389142D01*
X106461771Y-80436761D01*
X106557009Y-80484380D01*
X106795104Y-80484380D01*
X106890342Y-80436761D01*
X106937961Y-80389142D01*
X108417333Y-55100380D02*
X108417333Y-55814666D01*
X108464952Y-55957523D01*
X108560190Y-56052761D01*
X108703047Y-56100380D01*
X108798285Y-56100380D01*
X107941142Y-56100380D02*
X107941142Y-55100380D01*
X107560190Y-55100380D01*
X107464952Y-55148000D01*
X107417333Y-55195619D01*
X107369714Y-55290857D01*
X107369714Y-55433714D01*
X107417333Y-55528952D01*
X107464952Y-55576571D01*
X107560190Y-55624190D01*
X107941142Y-55624190D01*
X106512571Y-55100380D02*
X106703047Y-55100380D01*
X106798285Y-55148000D01*
X106845904Y-55195619D01*
X106941142Y-55338476D01*
X106988761Y-55528952D01*
X106988761Y-55909904D01*
X106941142Y-56005142D01*
X106893523Y-56052761D01*
X106798285Y-56100380D01*
X106607809Y-56100380D01*
X106512571Y-56052761D01*
X106464952Y-56005142D01*
X106417333Y-55909904D01*
X106417333Y-55671809D01*
X106464952Y-55576571D01*
X106512571Y-55528952D01*
X106607809Y-55481333D01*
X106798285Y-55481333D01*
X106893523Y-55528952D01*
X106941142Y-55576571D01*
X106988761Y-55671809D01*
X51607880Y-74350666D02*
X52322166Y-74350666D01*
X52465023Y-74303047D01*
X52560261Y-74207809D01*
X52607880Y-74064952D01*
X52607880Y-73969714D01*
X52607880Y-74826857D02*
X51607880Y-74826857D01*
X51607880Y-75207809D01*
X51655500Y-75303047D01*
X51703119Y-75350666D01*
X51798357Y-75398285D01*
X51941214Y-75398285D01*
X52036452Y-75350666D01*
X52084071Y-75303047D01*
X52131690Y-75207809D01*
X52131690Y-74826857D01*
X51703119Y-75779238D02*
X51655500Y-75826857D01*
X51607880Y-75922095D01*
X51607880Y-76160190D01*
X51655500Y-76255428D01*
X51703119Y-76303047D01*
X51798357Y-76350666D01*
X51893595Y-76350666D01*
X52036452Y-76303047D01*
X52607880Y-75731619D01*
X52607880Y-76350666D01*
M02*
