%TF.GenerationSoftware,KiCad,Pcbnew,5.0.0-rc2-dev-unknown-bf135b0~64~ubuntu18.04.1*%
%TF.CreationDate,2018-05-03T23:22:02-07:00*%
%TF.ProjectId,PrntrBoardV1,50726E7472426F61726456312E6B6963,rev?*%
%TF.SameCoordinates,Original*%
%TF.FileFunction,Paste,Top*%
%TF.FilePolarity,Positive*%
%FSLAX46Y46*%
G04 Gerber Fmt 4.6, Leading zero omitted, Abs format (unit mm)*
G04 Created by KiCad (PCBNEW 5.0.0-rc2-dev-unknown-bf135b0~64~ubuntu18.04.1) date Thu May  3 23:22:02 2018*
%MOMM*%
%LPD*%
G01*
G04 APERTURE LIST*
%ADD10R,1.500000X0.300000*%
%ADD11R,0.300000X1.500000*%
%ADD12R,1.350000X1.350000*%
%ADD13R,3.500000X1.600000*%
%ADD14R,0.820000X1.000000*%
%ADD15R,1.000000X0.820000*%
%ADD16R,1.600000X2.600000*%
%ADD17R,1.600000X3.500000*%
%ADD18R,1.220000X1.800000*%
%ADD19R,1.800000X1.220000*%
%ADD20R,0.500000X0.500000*%
%ADD21R,1.450000X0.450000*%
%ADD22R,0.800000X0.900000*%
%ADD23R,0.800000X0.500000*%
%ADD24R,0.500000X0.800000*%
%ADD25R,0.600000X1.050000*%
%ADD26O,0.300000X0.550000*%
%ADD27R,0.300000X0.200000*%
%ADD28R,1.000000X0.650000*%
G04 APERTURE END LIST*
D10*
X106704599Y-103507300D03*
X106704599Y-103007300D03*
X106704599Y-102507300D03*
X106704599Y-102007300D03*
X106704599Y-101507300D03*
X106704599Y-101007300D03*
X106704599Y-100507300D03*
X106704599Y-100007300D03*
X106704599Y-99507300D03*
X106704599Y-99007300D03*
X106704599Y-98507300D03*
X106704599Y-98007300D03*
D11*
X105254599Y-96557300D03*
X104254599Y-96557300D03*
X103254599Y-96557300D03*
X102254599Y-96557300D03*
X101254599Y-96557300D03*
X100254599Y-96557300D03*
X99754599Y-96557300D03*
D10*
X98304599Y-98007300D03*
X98304599Y-98507300D03*
X98304599Y-99007300D03*
X98304599Y-99507300D03*
X98304599Y-100007300D03*
X98304599Y-100507300D03*
X98304599Y-101007300D03*
X98304599Y-101507300D03*
X98304599Y-102007300D03*
X98304599Y-102507300D03*
X98304599Y-103007300D03*
X98304599Y-103507300D03*
D11*
X99754599Y-104957300D03*
X100254599Y-104957300D03*
X100754599Y-104957300D03*
X101254599Y-104957300D03*
X102254599Y-104957300D03*
X103254599Y-104957300D03*
X104254599Y-104957300D03*
X105254599Y-104957300D03*
D12*
X101629599Y-99882300D03*
X101629599Y-101632300D03*
X103379599Y-99882300D03*
X103379599Y-101632300D03*
D10*
X31106201Y-46546700D03*
X31106201Y-47046700D03*
X31106201Y-47546700D03*
X31106201Y-48046700D03*
X31106201Y-48546700D03*
X31106201Y-49046700D03*
X31106201Y-49546700D03*
X31106201Y-50046700D03*
X31106201Y-50546700D03*
X31106201Y-51046700D03*
X31106201Y-51546700D03*
X31106201Y-52046700D03*
D11*
X32556201Y-53496700D03*
X33556201Y-53496700D03*
X34556201Y-53496700D03*
X35556201Y-53496700D03*
X36556201Y-53496700D03*
X37556201Y-53496700D03*
X38056201Y-53496700D03*
D10*
X39506201Y-52046700D03*
X39506201Y-51546700D03*
X39506201Y-51046700D03*
X39506201Y-50546700D03*
X39506201Y-50046700D03*
X39506201Y-49546700D03*
X39506201Y-49046700D03*
X39506201Y-48546700D03*
X39506201Y-48046700D03*
X39506201Y-47546700D03*
X39506201Y-47046700D03*
X39506201Y-46546700D03*
D11*
X38056201Y-45096700D03*
X37556201Y-45096700D03*
X37056201Y-45096700D03*
X36556201Y-45096700D03*
X35556201Y-45096700D03*
X34556201Y-45096700D03*
X33556201Y-45096700D03*
X32556201Y-45096700D03*
D12*
X36181201Y-50171700D03*
X36181201Y-48421700D03*
X34431201Y-50171700D03*
X34431201Y-48421700D03*
D10*
X106843399Y-78127300D03*
X106843399Y-77627300D03*
X106843399Y-77127300D03*
X106843399Y-76627300D03*
X106843399Y-76127300D03*
X106843399Y-75627300D03*
X106843399Y-75127300D03*
X106843399Y-74627300D03*
X106843399Y-74127300D03*
X106843399Y-73627300D03*
X106843399Y-73127300D03*
X106843399Y-72627300D03*
D11*
X105393399Y-71177300D03*
X104393399Y-71177300D03*
X103393399Y-71177300D03*
X102393399Y-71177300D03*
X101393399Y-71177300D03*
X100393399Y-71177300D03*
X99893399Y-71177300D03*
D10*
X98443399Y-72627300D03*
X98443399Y-73127300D03*
X98443399Y-73627300D03*
X98443399Y-74127300D03*
X98443399Y-74627300D03*
X98443399Y-75127300D03*
X98443399Y-75627300D03*
X98443399Y-76127300D03*
X98443399Y-76627300D03*
X98443399Y-77127300D03*
X98443399Y-77627300D03*
X98443399Y-78127300D03*
D11*
X99893399Y-79577300D03*
X100393399Y-79577300D03*
X100893399Y-79577300D03*
X101393399Y-79577300D03*
X102393399Y-79577300D03*
X103393399Y-79577300D03*
X104393399Y-79577300D03*
X105393399Y-79577300D03*
D12*
X101768399Y-74502300D03*
X101768399Y-76252300D03*
X103518399Y-74502300D03*
X103518399Y-76252300D03*
D10*
X106856999Y-53754500D03*
X106856999Y-53254500D03*
X106856999Y-52754500D03*
X106856999Y-52254500D03*
X106856999Y-51754500D03*
X106856999Y-51254500D03*
X106856999Y-50754500D03*
X106856999Y-50254500D03*
X106856999Y-49754500D03*
X106856999Y-49254500D03*
X106856999Y-48754500D03*
X106856999Y-48254500D03*
D11*
X105406999Y-46804500D03*
X104406999Y-46804500D03*
X103406999Y-46804500D03*
X102406999Y-46804500D03*
X101406999Y-46804500D03*
X100406999Y-46804500D03*
X99906999Y-46804500D03*
D10*
X98456999Y-48254500D03*
X98456999Y-48754500D03*
X98456999Y-49254500D03*
X98456999Y-49754500D03*
X98456999Y-50254500D03*
X98456999Y-50754500D03*
X98456999Y-51254500D03*
X98456999Y-51754500D03*
X98456999Y-52254500D03*
X98456999Y-52754500D03*
X98456999Y-53254500D03*
X98456999Y-53754500D03*
D11*
X99906999Y-55204500D03*
X100406999Y-55204500D03*
X100906999Y-55204500D03*
X101406999Y-55204500D03*
X102406999Y-55204500D03*
X103406999Y-55204500D03*
X104406999Y-55204500D03*
X105406999Y-55204500D03*
D12*
X101781999Y-50129500D03*
X101781999Y-51879500D03*
X103531999Y-50129500D03*
X103531999Y-51879500D03*
D11*
X38046100Y-27285401D03*
X37546100Y-27285401D03*
X37046100Y-27285401D03*
X36546100Y-27285401D03*
X36046100Y-27285401D03*
X35546100Y-27285401D03*
X35046100Y-27285401D03*
X34546100Y-27285401D03*
X34046100Y-27285401D03*
X33546100Y-27285401D03*
X33046100Y-27285401D03*
X32546100Y-27285401D03*
D10*
X31096100Y-28735401D03*
X31096100Y-29735401D03*
X31096100Y-30735401D03*
X31096100Y-31735401D03*
X31096100Y-32735401D03*
X31096100Y-33735401D03*
X31096100Y-34235401D03*
D11*
X32546100Y-35685401D03*
X33046100Y-35685401D03*
X33546100Y-35685401D03*
X34046100Y-35685401D03*
X34546100Y-35685401D03*
X35046100Y-35685401D03*
X35546100Y-35685401D03*
X36046100Y-35685401D03*
X36546100Y-35685401D03*
X37046100Y-35685401D03*
X37546100Y-35685401D03*
X38046100Y-35685401D03*
D10*
X39496100Y-34235401D03*
X39496100Y-33735401D03*
X39496100Y-33235401D03*
X39496100Y-32735401D03*
X39496100Y-31735401D03*
X39496100Y-30735401D03*
X39496100Y-29735401D03*
X39496100Y-28735401D03*
D12*
X34421100Y-32360401D03*
X36171100Y-32360401D03*
X34421100Y-30610401D03*
X36171100Y-30610401D03*
D13*
X54864000Y-31369000D03*
X49464000Y-31369000D03*
D14*
X52832000Y-35750500D03*
X51232000Y-35750500D03*
D15*
X63830200Y-34975800D03*
X63830200Y-33375800D03*
X77025500Y-92126000D03*
X77025500Y-93726000D03*
X86652100Y-37058400D03*
X86652100Y-35458400D03*
X42291000Y-93015000D03*
X42291000Y-94615000D03*
X34569400Y-101409700D03*
X34569400Y-103009700D03*
X77089000Y-83528000D03*
X77089000Y-85128000D03*
X42291000Y-101384100D03*
X42291000Y-102984100D03*
X77025500Y-74981000D03*
X77025500Y-76581000D03*
X34607500Y-92989500D03*
X34607500Y-94589500D03*
X42291000Y-84582000D03*
X42291000Y-86182000D03*
X76034900Y-35179000D03*
X76034900Y-33579000D03*
D16*
X79184500Y-35070600D03*
X79184500Y-31470600D03*
X66979800Y-34918200D03*
X66979800Y-31318200D03*
X89801700Y-37026400D03*
X89801700Y-33426400D03*
D13*
X94400000Y-39650000D03*
X99800000Y-39650000D03*
X43560000Y-60640000D03*
X38160000Y-60640000D03*
X94250000Y-89200000D03*
X99650000Y-89200000D03*
D17*
X24231600Y-39690000D03*
X24231600Y-34290000D03*
D13*
X94400000Y-63750000D03*
X99800000Y-63750000D03*
D14*
X41452800Y-43180000D03*
X39852800Y-43180000D03*
D15*
X22225000Y-48704500D03*
X22225000Y-47104500D03*
D14*
X24892000Y-43535600D03*
X26492000Y-43535600D03*
D15*
X22225000Y-51308000D03*
X22225000Y-52908000D03*
X29210000Y-52844500D03*
X29210000Y-51244500D03*
X41503600Y-47193200D03*
X41503600Y-45593200D03*
D14*
X38430000Y-43180000D03*
X36830000Y-43180000D03*
X61455500Y-81153000D03*
X63055500Y-81153000D03*
X112115600Y-106222800D03*
X110515600Y-106222800D03*
X75489000Y-98742500D03*
X77089000Y-98742500D03*
X32639000Y-84442300D03*
X31039000Y-84442300D03*
X99390400Y-106730800D03*
X100990400Y-106730800D03*
D15*
X96469200Y-103276400D03*
X96469200Y-104876400D03*
X108500000Y-97400000D03*
X108500000Y-99000000D03*
X31597600Y-58902400D03*
X31597600Y-57302400D03*
X115506500Y-101028500D03*
X115506500Y-102628500D03*
D14*
X24739600Y-56489600D03*
X26339600Y-56489600D03*
D15*
X108700000Y-72136000D03*
X108700000Y-73736000D03*
X115506500Y-98501000D03*
X115506500Y-96901000D03*
D14*
X33096400Y-38963600D03*
X34696400Y-38963600D03*
X40767000Y-99631500D03*
X42367000Y-99631500D03*
X32969200Y-108064300D03*
X34569200Y-108064300D03*
X41452800Y-48717200D03*
X43052800Y-48717200D03*
X40843400Y-108038900D03*
X42443400Y-108038900D03*
X112115600Y-93319600D03*
X110515600Y-93319600D03*
X99568000Y-81381600D03*
X101168000Y-81381600D03*
D15*
X96621600Y-77825600D03*
X96621600Y-79425600D03*
X96469200Y-101904800D03*
X96469200Y-100304800D03*
D14*
X96444000Y-106730800D03*
X98044000Y-106730800D03*
D15*
X115506500Y-73469500D03*
X115506500Y-71869500D03*
D14*
X112522000Y-81127600D03*
X110922000Y-81127600D03*
X112471200Y-68326000D03*
X110871200Y-68326000D03*
D15*
X115506500Y-76009500D03*
X115506500Y-77609500D03*
D14*
X75565000Y-90297000D03*
X77165000Y-90297000D03*
X58242000Y-75628500D03*
X56642000Y-75628500D03*
X96583600Y-81381600D03*
X98183600Y-81381600D03*
X99542800Y-56997600D03*
X101142800Y-56997600D03*
D15*
X96621600Y-53467200D03*
X96621600Y-55067200D03*
X108650000Y-47550000D03*
X108650000Y-49150000D03*
X105968800Y-90703600D03*
X105968800Y-92303600D03*
X114096800Y-44843600D03*
X114096800Y-43243600D03*
X110490000Y-51689000D03*
X110490000Y-53289000D03*
X45770800Y-28930800D03*
X45770800Y-30530800D03*
X110426500Y-49149000D03*
X110426500Y-47549000D03*
D14*
X105130400Y-110845600D03*
X103530400Y-110845600D03*
X75501500Y-81661000D03*
X77101500Y-81661000D03*
X32956500Y-99631500D03*
X34556500Y-99631500D03*
D15*
X41300400Y-34594800D03*
X41300400Y-32994800D03*
D14*
X37439600Y-37439600D03*
X39039600Y-37439600D03*
X31674000Y-25400000D03*
X33274000Y-25400000D03*
X29895600Y-23723600D03*
X28295600Y-23723600D03*
X115582800Y-55067200D03*
X117182800Y-55067200D03*
X49073000Y-72199500D03*
X50673000Y-72199500D03*
X36258500Y-23749000D03*
X37858500Y-23749000D03*
D15*
X40538400Y-21640800D03*
X40538400Y-23240800D03*
X96621600Y-76428400D03*
X96621600Y-74828400D03*
D14*
X40754500Y-91249500D03*
X42354500Y-91249500D03*
X32664400Y-77952600D03*
X31064400Y-77952600D03*
X32664400Y-71323200D03*
X31064400Y-71323200D03*
D15*
X105968800Y-65595600D03*
X105968800Y-67195600D03*
D14*
X104825600Y-85852000D03*
X103225600Y-85852000D03*
X33210500Y-23749000D03*
X31610500Y-23749000D03*
D15*
X96621600Y-52120800D03*
X96621600Y-50520800D03*
X106299000Y-41326000D03*
X106299000Y-42926000D03*
X106172000Y-60782000D03*
X106172000Y-59182000D03*
X41300400Y-37566400D03*
X41300400Y-35966400D03*
D14*
X36068000Y-37439600D03*
X34468000Y-37439600D03*
X96596400Y-56997600D03*
X98196400Y-56997600D03*
X25679600Y-28092400D03*
X27279600Y-28092400D03*
D18*
X98087200Y-58928000D03*
X100947200Y-58928000D03*
X97927200Y-93850000D03*
X100787200Y-93850000D03*
X39893200Y-41148000D03*
X37033200Y-41148000D03*
X97927200Y-108712000D03*
X100787200Y-108712000D03*
X98079600Y-68350000D03*
X100939600Y-68350000D03*
D19*
X43281600Y-36032400D03*
X43281600Y-33172400D03*
D18*
X98079600Y-44250000D03*
X100939600Y-44250000D03*
D19*
X28854400Y-36032400D03*
X28854400Y-33172400D03*
D18*
X39870000Y-55940000D03*
X37010000Y-55940000D03*
X98079600Y-83312000D03*
X100939600Y-83312000D03*
D20*
X67287500Y-108204000D03*
X65087500Y-108204000D03*
X75765300Y-28930600D03*
X77965300Y-28930600D03*
X63560600Y-28778200D03*
X65760600Y-28778200D03*
X86398100Y-30886400D03*
X88598100Y-30886400D03*
X75860000Y-108267500D03*
X73660000Y-108267500D03*
X59118500Y-108204000D03*
X56918500Y-108204000D03*
X50777500Y-108267500D03*
X48577500Y-108267500D03*
D21*
X56775699Y-73985400D03*
X56775699Y-73335400D03*
X56775699Y-72685400D03*
X56775699Y-72035400D03*
X56775699Y-71385400D03*
X56775699Y-70735400D03*
X56775699Y-70085400D03*
X62675699Y-70085400D03*
X62675699Y-70735400D03*
X62675699Y-71385400D03*
X62675699Y-72035400D03*
X62675699Y-72685400D03*
X62675699Y-73335400D03*
X62675699Y-73985400D03*
X62723301Y-82833600D03*
X62723301Y-83483600D03*
X62723301Y-84133600D03*
X62723301Y-84783600D03*
X62723301Y-85433600D03*
X62723301Y-86083600D03*
X62723301Y-86733600D03*
X56823301Y-86733600D03*
X56823301Y-86083600D03*
X56823301Y-85433600D03*
X56823301Y-84783600D03*
X56823301Y-84133600D03*
X56823301Y-83483600D03*
X56823301Y-82833600D03*
X50312901Y-73842900D03*
X50312901Y-74492900D03*
X50312901Y-75142900D03*
X50312901Y-75792900D03*
X50312901Y-76442900D03*
X50312901Y-77092900D03*
X50312901Y-77742900D03*
X44412901Y-77742900D03*
X44412901Y-77092900D03*
X44412901Y-76442900D03*
X44412901Y-75792900D03*
X44412901Y-75142900D03*
X44412901Y-74492900D03*
X44412901Y-73842900D03*
D22*
X70673000Y-106521500D03*
X68773000Y-106521500D03*
X69723000Y-108521500D03*
X62357000Y-106489500D03*
X60457000Y-106489500D03*
X61407000Y-108489500D03*
X54036000Y-106521500D03*
X52136000Y-106521500D03*
X53086000Y-108521500D03*
X79055000Y-106521500D03*
X77155000Y-106521500D03*
X78105000Y-108521500D03*
D23*
X59133700Y-32050629D03*
X59133700Y-32900629D03*
X59133700Y-31200629D03*
X61433700Y-32050629D03*
X61433700Y-32900629D03*
X61433700Y-31200629D03*
X60283700Y-31200629D03*
X60283700Y-32900629D03*
D24*
X58403700Y-29350629D03*
X62163700Y-29350629D03*
X59683700Y-29350629D03*
D25*
X59643700Y-35070629D03*
X58373700Y-35070629D03*
X60923700Y-35070629D03*
X62193700Y-35070629D03*
D24*
X60883700Y-29350629D03*
D23*
X60283700Y-32050629D03*
X71338400Y-32256229D03*
X71338400Y-33106229D03*
X71338400Y-31406229D03*
X73638400Y-32256229D03*
X73638400Y-33106229D03*
X73638400Y-31406229D03*
X72488400Y-31406229D03*
X72488400Y-33106229D03*
D24*
X70608400Y-29556229D03*
X74368400Y-29556229D03*
X71888400Y-29556229D03*
D25*
X71848400Y-35276229D03*
X70578400Y-35276229D03*
X73128400Y-35276229D03*
X74398400Y-35276229D03*
D24*
X73088400Y-29556229D03*
D23*
X72488400Y-32256229D03*
D26*
X83035500Y-36500400D03*
X83685500Y-36500400D03*
D27*
X84335500Y-36700400D03*
D26*
X84985500Y-36500400D03*
X84985500Y-33400400D03*
X84335500Y-33400400D03*
D27*
X83685500Y-33200400D03*
X83035500Y-33200400D03*
D28*
X83385500Y-35400400D03*
X83385500Y-34500400D03*
X84635500Y-35400400D03*
X84635500Y-34500400D03*
D27*
X83035500Y-36700400D03*
X83685500Y-36700400D03*
D26*
X84335500Y-36500400D03*
D27*
X84985500Y-36700400D03*
X84985500Y-33200400D03*
X84335500Y-33200400D03*
D26*
X83685500Y-33400400D03*
X83035500Y-33400400D03*
D15*
X40767000Y-94615000D03*
X40767000Y-93015000D03*
X78613000Y-93726000D03*
X78613000Y-92126000D03*
X75438000Y-93675000D03*
X75438000Y-92075000D03*
X32588200Y-81495900D03*
X32588200Y-79895900D03*
D14*
X32639000Y-82918300D03*
X31039000Y-82918300D03*
D15*
X74460100Y-38379400D03*
X74460100Y-36779400D03*
X76034900Y-32207000D03*
X76034900Y-30607000D03*
X62420500Y-103505000D03*
X62420500Y-105105000D03*
X43815000Y-94627500D03*
X43815000Y-93027500D03*
X36068000Y-103009700D03*
X36068000Y-101409700D03*
X33020000Y-103009500D03*
X33020000Y-101409500D03*
X52578000Y-105156000D03*
X52578000Y-103556000D03*
X70739000Y-103556000D03*
X70739000Y-105156000D03*
X78613000Y-85166000D03*
X78613000Y-83566000D03*
X54102000Y-103556000D03*
X54102000Y-105156000D03*
X75565000Y-85217000D03*
X75565000Y-83617000D03*
X43840400Y-103009700D03*
X43840400Y-101409700D03*
X63830200Y-32029400D03*
X63830200Y-30429400D03*
D14*
X32524500Y-87693500D03*
X30924500Y-87693500D03*
D15*
X36131500Y-94551500D03*
X36131500Y-92951500D03*
X78549500Y-76607300D03*
X78549500Y-75007300D03*
X75501500Y-76581000D03*
X75501500Y-74981000D03*
X33083500Y-94551500D03*
X33083500Y-92951500D03*
X43815000Y-86169500D03*
X43815000Y-84569500D03*
X40767000Y-86169500D03*
X40767000Y-84569500D03*
X32562800Y-75006200D03*
X32562800Y-73406200D03*
D14*
X32664400Y-76428600D03*
X31064400Y-76428600D03*
D15*
X62255400Y-38227000D03*
X62255400Y-36627000D03*
X40792400Y-102984100D03*
X40792400Y-101384100D03*
X69215000Y-105168500D03*
X69215000Y-103568500D03*
X32613600Y-68376800D03*
X32613600Y-66776800D03*
D14*
X32664400Y-69799200D03*
X31064400Y-69799200D03*
D15*
X85077300Y-39344400D03*
X85077300Y-37744400D03*
X86652100Y-34086800D03*
X86652100Y-32486800D03*
X77533500Y-105156000D03*
X77533500Y-103556000D03*
X79057500Y-103556000D03*
X79057500Y-105156000D03*
X60833000Y-105105000D03*
X60833000Y-103505000D03*
D18*
X31633200Y-40944800D03*
X34493200Y-40944800D03*
D19*
X103987600Y-89611200D03*
X103987600Y-92471200D03*
D18*
X106273600Y-83921600D03*
X103413600Y-83921600D03*
X106542800Y-108864400D03*
X103682800Y-108864400D03*
D19*
X104089200Y-64196000D03*
X104089200Y-67056000D03*
X104267000Y-39939000D03*
X104267000Y-42799000D03*
X104140000Y-62169000D03*
X104140000Y-59309000D03*
D18*
X24521200Y-30073600D03*
X27381200Y-30073600D03*
D19*
X33680400Y-60162400D03*
X33680400Y-57302400D03*
X43789600Y-27467600D03*
X43789600Y-30327600D03*
M02*
