M48
;DRILL file {KiCad 5.0.0-rc2-dev-unknown-bf135b0~64~ubuntu18.04.1} date Thu May  3 18:07:51 2018
;FORMAT={-:-/ absolute / inch / decimal}
FMAT,2
INCH,TZ
T1C0.0098
T2C0.0120
T3C0.0200
T4C0.0300
T5C0.0394
T6C0.0472
T7C0.0512
T8C0.1260
%
G90
G05
M72
T1
X3.278Y-1.3563
X3.278Y-1.3957
X3.3075Y-1.376
X3.337Y-1.3563
X3.337Y-1.3957
T2
X0.84Y-1.07
X0.84Y-1.105
X0.84Y-1.1375
X0.856Y-1.664
X0.912Y-1.664
X0.968Y-1.664
X0.995Y-1.305
X1.0175Y-1.306
X1.018Y-1.66
X1.04Y-1.306
X1.058Y-1.558
X1.062Y-2.296
X1.0625Y-1.306
X1.065Y-2.62
X1.065Y-2.6575
X1.0675Y-3.1925
X1.0675Y-3.465
X1.0675Y-3.4975
X1.072Y-1.664
X1.075Y-3.36
X1.08Y-2.9475
X1.0825Y-2.84
X1.085Y-1.306
X1.0975Y-2.62
X1.1Y-3.22
X1.1Y-3.26
X1.1075Y-1.306
X1.1075Y-2.86
X1.1094Y-2.305
X1.11Y-2.9725
X1.1175Y-3.395
X1.1275Y-1.1725
X1.1275Y-1.25
X1.144Y-1.93
X1.15Y-1.1725
X1.15Y-1.25
X1.158Y-2.466
X1.1675Y-1.4875
X1.1675Y-1.5175
X1.17Y-1.614
X1.1725Y-1.1725
X1.1725Y-1.25
X1.175Y-1.97
X1.1775Y-1.8992
X1.1841Y-2.272
X1.192Y-1.588
X1.2163Y-1.5175
X1.2344Y-1.4875
X1.248Y-1.538
X1.265Y-1.95
X1.265Y-1.99
X1.265Y-3.39
X1.2659Y-1.9084
X1.2678Y-1.8773
X1.27Y-1.85
X1.2825Y-2.59
X1.285Y-2.865
X1.285Y-3.125
X1.29Y-3.39
X1.3Y-1.1525
X1.3Y-1.1775
X1.3Y-1.2025
X1.3Y-1.2275
X1.3Y-1.2525
X1.3Y-1.2775
X1.3Y-1.3025
X1.3Y-1.3275
X1.3025Y-1.855
X1.3025Y-1.88
X1.3025Y-1.905
X1.3025Y-1.93
X1.3025Y-1.955
X1.3025Y-1.98
X1.3025Y-2.005
X1.3025Y-2.0275
X1.32Y-1.45
X1.32Y-1.685
X1.32Y-1.7075
X1.32Y-1.73
X1.32Y-2.1525
X1.32Y-2.175
X1.32Y-2.1975
X1.3275Y-1.1525
X1.3275Y-1.1775
X1.3275Y-1.2025
X1.3275Y-1.2275
X1.3275Y-1.2525
X1.3275Y-1.2775
X1.3275Y-1.3025
X1.3275Y-1.3275
X1.3275Y-1.855
X1.3275Y-1.88
X1.3275Y-1.905
X1.3275Y-1.93
X1.3275Y-1.955
X1.3275Y-1.98
X1.3275Y-2.0025
X1.3275Y-2.0275
X1.34Y-1.1175
X1.3525Y-1.1525
X1.3525Y-1.1775
X1.3525Y-1.2025
X1.3525Y-1.2275
X1.3525Y-1.2525
X1.3525Y-1.2775
X1.3525Y-1.3025
X1.3525Y-1.3275
X1.3525Y-1.855
X1.3525Y-1.88
X1.3525Y-1.905
X1.3525Y-1.93
X1.3525Y-1.955
X1.3525Y-1.98
X1.3525Y-2.005
X1.3525Y-2.0275
X1.36Y-1.0275
X1.36Y-1.3625
X1.3606Y-2.5296
X1.3775Y-1.12
X1.3775Y-1.1525
X1.3775Y-1.1775
X1.3775Y-1.2025
X1.3775Y-1.2275
X1.3775Y-1.2525
X1.3775Y-1.2775
X1.3775Y-1.3025
X1.3775Y-1.3275
X1.3775Y-1.855
X1.3775Y-1.88
X1.3775Y-1.905
X1.3775Y-1.93
X1.3775Y-1.955
X1.3775Y-1.98
X1.3775Y-2.005
X1.3775Y-2.0275
X1.4Y-1.685
X1.4Y-1.7075
X1.4Y-1.73
X1.4Y-2.1525
X1.4Y-2.175
X1.4Y-2.1975
X1.4Y-3.8825
X1.4025Y-1.1525
X1.4025Y-1.1775
X1.4025Y-1.2025
X1.4025Y-1.2275
X1.4025Y-1.2525
X1.4025Y-1.2775
X1.4025Y-1.3025
X1.4025Y-1.3275
X1.4025Y-1.855
X1.4025Y-1.88
X1.4025Y-1.905
X1.4025Y-1.93
X1.4025Y-1.955
X1.4025Y-1.98
X1.4025Y-2.005
X1.4025Y-2.0275
X1.4225Y-1.0225
X1.4225Y-1.12
X1.4275Y-1.1525
X1.4275Y-1.1775
X1.4275Y-1.2025
X1.4275Y-1.2275
X1.4275Y-1.2525
X1.4275Y-1.2775
X1.4275Y-1.3025
X1.4275Y-1.3275
X1.4275Y-1.855
X1.4275Y-1.88
X1.4275Y-1.905
X1.4275Y-1.93
X1.4275Y-1.955
X1.4275Y-1.98
X1.4275Y-2.005
X1.4275Y-2.0275
X1.4325Y-1.5172
X1.4475Y-2.1475
X1.4525Y-1.1525
X1.4525Y-1.1775
X1.4525Y-1.2025
X1.4525Y-1.2275
X1.4525Y-1.2525
X1.4525Y-1.2775
X1.4525Y-1.3025
X1.4525Y-1.3275
X1.4525Y-1.6625
X1.4525Y-1.855
X1.4525Y-1.88
X1.4525Y-1.905
X1.4525Y-1.93
X1.4525Y-1.955
X1.4525Y-1.98
X1.4525Y-2.005
X1.4525Y-2.0275
X1.4528Y-1.1176
X1.4571Y-2.245
X1.4575Y-2.2675
X1.4575Y-2.2875
X1.4575Y-2.3075
X1.4575Y-2.3275
X1.4575Y-2.3475
X1.4675Y-1.59
X1.4715Y-2.5785
X1.4775Y-1.1525
X1.4775Y-1.1775
X1.4775Y-1.2025
X1.4775Y-1.2275
X1.4775Y-1.2525
X1.4775Y-1.2775
X1.4775Y-1.3025
X1.4775Y-1.3275
X1.4775Y-1.855
X1.4775Y-1.88
X1.4775Y-1.905
X1.4775Y-1.93
X1.4775Y-1.955
X1.4775Y-1.98
X1.4775Y-2.005
X1.4775Y-2.0275
X1.4782Y-1.1119
X1.485Y-2.745
X1.485Y-3.035
X1.485Y-3.0675
X1.485Y-3.1025
X1.4875Y-1.63
X1.4875Y-1.655
X1.4875Y-2.7825
X1.4875Y-2.8175
X1.5075Y-3.6675
X1.5075Y-3.695
X1.5136Y-1.4767
X1.5225Y-1.415
X1.526Y-1.568
X1.545Y-1.435
X1.565Y-2.545
X1.575Y-1.47
X1.5825Y-1.515
X1.5825Y-2.6475
X1.586Y-3.256
X1.5975Y-1.2975
X1.6025Y-1.17
X1.6025Y-1.25
X1.6045Y-2.0105
X1.605Y-1.98
X1.6075Y-2.5475
X1.608Y-2.4286
X1.6081Y-3.155
X1.6081Y-3.205
X1.625Y-1.17
X1.625Y-1.25
X1.63Y-1.61
X1.6475Y-1.17
X1.6475Y-1.25
X1.65Y-2.55
X1.6617Y-1.533
X1.665Y-2.6275
X1.6694Y-1.3025
X1.6694Y-1.3275
X1.675Y-2.0175
X1.678Y-2.8
X1.6817Y-1.482
X1.684Y-3.062
X1.69Y-3.1525
X1.6906Y-3.2069
X1.7Y-1.52
X1.7025Y-2.2125
X1.705Y-2.0175
X1.7225Y-2.625
X1.725Y-1.52
X1.7325Y-2.5525
X1.735Y-2.0175
X1.7375Y-2.2125
X1.74Y-1.3025
X1.74Y-1.3275
X1.75Y-1.52
X1.7525Y-2.7275
X1.7625Y-2.5525
X1.7675Y-1.7325
X1.7675Y-2.0175
X1.79Y-0.91
X1.79Y-0.935
X1.79Y-0.96
X1.792Y-3.272
X1.8025Y-1.6275
X1.8025Y-1.655
X1.8175Y-0.9775
X1.82Y-2.325
X1.82Y-2.36
X1.82Y-2.4
X1.83Y-3.2425
X1.8425Y-0.995
X1.928Y-1.594
X1.9325Y-0.8125
X1.94Y-3.4175
X1.944Y-3.868
X1.9675Y-1.5075
X1.9825Y-2.9591
X1.99Y-2.0675
X1.995Y-0.8125
X1.995Y-2.5025
X1.9975Y-2.215
X1.9975Y-2.2475
X1.9975Y-2.2875
X2.0025Y-1.5125
X2.005Y-1.7725
X2.005Y-1.8075
X2.005Y-1.84
X2.006Y-2.45
X2.03Y-2.5025
X2.035Y-1.5125
X2.0425Y-2.7125
X2.0425Y-2.74
X2.0425Y-2.7675
X2.0425Y-2.795
X2.055Y-0.8125
X2.064Y-3.012
X2.0675Y-1.5125
X2.086Y-2.93
X2.094Y-2.576
X2.0975Y-1.5125
X2.0975Y-1.9325
X2.118Y-2.956
X2.12Y-0.8125
X2.1275Y-1.515
X2.13Y-1.894
X2.135Y-1.935
X2.14Y-2.4
X2.14Y-2.4425
X2.14Y-2.48
X2.1625Y-3.0925
X2.185Y-3.235
X2.19Y-3.0925
X2.2Y-3.605
X2.2175Y-2.4025
X2.2175Y-2.44
X2.2175Y-2.4825
X2.2175Y-3.0925
X2.2225Y-2.0725
X2.225Y-1.945
X2.2275Y-0.8125
X2.2275Y-0.885
X2.2275Y-0.9575
X2.2275Y-1.0125
X2.2275Y-1.0725
X2.2275Y-3.6375
X2.24Y-2.576
X2.255Y-3.6725
X2.27Y-3.565
X2.2975Y-2.9
X2.2975Y-3.5925
X2.315Y-2.67
X2.325Y-1.81
X2.3275Y-0.8125
X2.33Y-3.5
X2.33Y-3.625
X2.3325Y-2.9
X2.35Y-1.4775
X2.35Y-1.505
X2.35Y-1.535
X2.35Y-1.565
X2.35Y-1.595
X2.355Y-0.8125
X2.357Y-2.8113
X2.36Y-3.5325
X2.3625Y-2.86
X2.3625Y-2.9
X2.365Y-1.81
X2.365Y-2.01
X2.365Y-2.0725
X2.365Y-3.105
X2.3825Y-0.8125
X2.39Y-3.5625
X2.3925Y-2.9
X2.3975Y-2.9675
X2.4Y-2.576
X2.405Y-1.81
X2.405Y-2.4
X2.405Y-2.44
X2.405Y-2.485
X2.4125Y-0.8125
X2.445Y-0.8125
X2.4775Y-0.8125
X2.5125Y-1.055
X2.535Y-3.195
X2.5375Y-1.12
X2.5375Y-2.8875
X2.5375Y-2.92
X2.5375Y-2.955
X2.54Y-2.738
X2.545Y-2.0825
X2.56Y-3.072
X2.5675Y-3.195
X2.5775Y-3.7625
X2.5875Y-2.6075
X2.5875Y-2.65
X2.5875Y-2.69
X2.595Y-3.
X2.5975Y-3.0925
X2.598Y-1.896
X2.6225Y-1.5775
X2.6325Y-3.6075
X2.66Y-1.5775
X2.665Y-3.7125
X2.675Y-3.6075
X2.68Y-3.285
X2.685Y-3.0925
X2.6975Y-1.5775
X2.7075Y-0.9275
X2.7075Y-0.995
X2.7075Y-1.055
X2.7075Y-1.1225
X2.71Y-2.6075
X2.7125Y-2.65
X2.7125Y-2.69
X2.7125Y-3.285
X2.7175Y-3.6075
X2.7175Y-3.7125
X2.72Y-2.738
X2.7375Y-1.5775
X2.74Y-2.885
X2.7475Y-3.285
X2.75Y-2.4075
X2.7525Y-2.455
X2.7525Y-2.495
X2.76Y-3.1975
X2.7625Y-3.0975
X2.765Y-3.7125
X2.77Y-2.8625
X2.7725Y-1.8075
X2.785Y-3.0025
X2.7925Y-2.695
X2.7925Y-3.0975
X2.7925Y-3.1975
X2.8025Y-2.8375
X2.8125Y-1.8075
X2.82Y-3.0975
X2.82Y-3.1975
X2.825Y-2.665
X2.855Y-1.8075
X2.8575Y-2.63
X2.8925Y-1.8075
X2.935Y-1.8075
X3.0125Y-2.8175
X3.015Y-1.4625
X3.0225Y-2.4175
X3.0425Y-1.4625
X3.0525Y-2.4175
X3.0525Y-2.8175
X3.069Y-1.4625
X3.0825Y-2.4175
X3.0875Y-2.715
X3.088Y-2.072
X3.09Y-2.8175
X3.11Y-2.358
X3.125Y-0.9025
X3.125Y-0.9575
X3.14Y-3.73
X3.15Y-2.718
X3.1525Y-3.0725
X3.155Y-2.9975
X3.1775Y-0.9025
X3.1875Y-2.4175
X3.1975Y-2.7175
X3.1975Y-3.575
X3.1975Y-3.6025
X3.198Y-2.912
X3.2Y-2.82
X3.215Y-1.4785
X3.2225Y-2.5875
X3.235Y-2.9975
X3.245Y-3.345
X3.25Y-1.48
X3.255Y-1.375
X3.255Y-1.3975
X3.2575Y-1.3375
X3.278Y-1.3563
X3.278Y-1.3957
X3.2825Y-4.4225
X3.3025Y-1.48
X3.3075Y-1.3375
X3.3075Y-1.376
X3.3075Y-1.4
X3.3225Y-4.4225
X3.335Y-1.7925
X3.337Y-1.3563
X3.337Y-1.3957
X3.36Y-1.3375
X3.3625Y-1.375
X3.3625Y-1.3975
X3.365Y-4.4225
X3.3725Y-1.7925
X3.4075Y-1.7925
X3.43Y-1.135
X3.44Y-1.7925
X3.455Y-3.635
X3.4575Y-3.245
X3.4675Y-2.9325
X3.475Y-1.59
X3.4775Y-3.08
X3.4775Y-3.905
X3.4775Y-3.9425
X3.4825Y-4.1225
X3.4825Y-4.165
X3.4825Y-4.2075
X3.485Y-2.7325
X3.4875Y-2.56
X3.5075Y-1.59
X3.535Y-2.355
X3.535Y-3.15
X3.5394Y-2.4757
X3.54Y-1.59
X3.5517Y-3.3991
X3.5517Y-3.4599
X3.5517Y-3.6675
X3.5517Y-3.73
X3.555Y-2.8225
X3.5575Y-3.8925
X3.5575Y-4.0025
X3.565Y-2.97
X3.6125Y-3.98
X3.6175Y-2.6975
X3.6269Y-2.252
X3.635Y-4.
X3.6575Y-4.0225
X3.6576Y-2.3575
X3.6725Y-2.575
X3.6875Y-1.21
X3.695Y-4.25
X3.695Y-4.28
X3.695Y-4.3125
X3.7Y-2.575
X3.705Y-2.6775
X3.71Y-3.685
X3.7125Y-2.825
X3.715Y-3.2375
X3.718Y-3.03
X3.7275Y-2.575
X3.735Y-2.7175
X3.7525Y-0.82
X3.7825Y-2.745
X3.7825Y-2.8225
X3.785Y-2.655
X3.785Y-3.9025
X3.794Y-2.33
X3.795Y-4.3025
X3.795Y-4.33
X3.795Y-4.355
X3.805Y-3.3775
X3.8175Y-0.82
X3.82Y-3.89
X3.825Y-1.21
X3.8275Y-1.935
X3.8275Y-3.3525
X3.8275Y-3.4325
X3.83Y-2.8925
X3.83Y-3.515
X3.84Y-3.4
X3.8475Y-4.105
X3.8525Y-2.7525
X3.8525Y-3.3525
X3.8575Y-3.095
X3.865Y-2.82
X3.8655Y-3.4395
X3.8675Y-3.4
X3.875Y-2.7525
X3.8875Y-0.82
X3.8875Y-2.82
X3.91Y-3.9375
X3.915Y-2.9375
X3.9175Y-1.98
X3.9291Y-1.48
X3.9425Y-2.48
X3.945Y-1.21
X3.9475Y-3.88
X3.9475Y-3.905
X3.9475Y-3.93
X3.9475Y-3.955
X3.9475Y-3.98
X3.9475Y-4.005
X3.9475Y-4.03
X3.9475Y-4.0525
X3.9525Y-1.92
X3.9525Y-1.945
X3.9525Y-1.97
X3.9525Y-1.995
X3.9525Y-2.02
X3.9525Y-2.045
X3.9525Y-2.07
X3.9525Y-2.095
X3.9525Y-2.8825
X3.9525Y-2.905
X3.9525Y-2.93
X3.9525Y-2.955
X3.9525Y-2.98
X3.9525Y-3.005
X3.9525Y-3.03
X3.9525Y-3.055
X3.9525Y-3.2475
X3.9525Y-3.3125
X3.9525Y-4.36
X3.9575Y-2.2925
X3.9575Y-2.3475
X3.968Y-3.635
X3.968Y-3.67
X3.968Y-3.6949
X3.9725Y-3.88
X3.9725Y-3.905
X3.9725Y-3.93
X3.9725Y-3.955
X3.9725Y-3.98
X3.9725Y-4.005
X3.9725Y-4.03
X3.9725Y-4.0525
X3.974Y-2.5547
X3.974Y-2.6375
X3.974Y-2.6675
X3.974Y-2.6909
X3.974Y-3.3375
X3.974Y-3.3625
X3.974Y-3.3875
X3.9743Y-2.3775
X3.9775Y-1.92
X3.9775Y-1.945
X3.9775Y-1.97
X3.9775Y-1.995
X3.9775Y-2.02
X3.9775Y-2.045
X3.9775Y-2.07
X3.9775Y-2.095
X3.9775Y-2.2125
X3.9775Y-2.2725
X3.9775Y-2.2925
X3.9775Y-2.3475
X3.9775Y-2.8825
X3.9775Y-2.905
X3.9775Y-2.93
X3.9775Y-2.955
X3.9775Y-2.98
X3.9775Y-3.005
X3.9775Y-3.03
X3.9775Y-3.055
X3.9775Y-3.75
X3.9775Y-4.17
X3.9775Y-4.1925
X3.9775Y-4.2175
X3.9775Y-4.245
X3.9775Y-4.27
X3.9775Y-4.295
X3.98Y-3.1725
X3.98Y-3.2325
X3.98Y-3.2525
X3.98Y-3.3125
X3.985Y-2.4775
X3.9875Y-2.7275
X3.9875Y-2.75
X3.9975Y-3.88
X3.9975Y-3.905
X3.9975Y-3.93
X3.9975Y-3.955
X3.9975Y-3.98
X3.9975Y-4.005
X3.9975Y-4.03
X3.9975Y-4.0525
X4.0025Y-1.92
X4.0025Y-1.945
X4.0025Y-1.97
X4.0025Y-1.995
X4.0025Y-2.02
X4.0025Y-2.045
X4.0025Y-2.07
X4.0025Y-2.095
X4.0025Y-2.8825
X4.0025Y-2.905
X4.0025Y-2.93
X4.0025Y-2.955
X4.0025Y-2.98
X4.0025Y-3.005
X4.0025Y-3.03
X4.0025Y-3.055
X4.0225Y-3.365
X4.0225Y-3.3925
X4.0225Y-3.88
X4.0225Y-3.905
X4.0225Y-3.93
X4.0225Y-3.955
X4.0225Y-3.98
X4.0225Y-4.005
X4.0225Y-4.03
X4.0225Y-4.0525
X4.025Y-3.56
X4.025Y-4.1825
X4.025Y-4.205
X4.025Y-4.2275
X4.0275Y-1.92
X4.0275Y-1.945
X4.0275Y-1.97
X4.0275Y-1.995
X4.0275Y-2.02
X4.0275Y-2.045
X4.0275Y-2.07
X4.0275Y-2.095
X4.0275Y-2.8825
X4.0275Y-2.905
X4.0275Y-2.93
X4.0275Y-2.955
X4.0275Y-2.98
X4.0275Y-3.005
X4.0275Y-3.03
X4.0275Y-3.055
X4.0275Y-3.705
X4.0275Y-3.7275
X4.0275Y-3.75
X4.03Y-1.745
X4.03Y-1.7675
X4.03Y-1.79
X4.03Y-2.225
X4.03Y-2.2475
X4.03Y-2.27
X4.03Y-3.185
X4.03Y-3.2075
X4.03Y-3.23
X4.0325Y-2.705
X4.0325Y-2.7275
X4.0325Y-2.75
X4.0475Y-3.88
X4.0475Y-3.905
X4.0475Y-3.93
X4.0475Y-3.955
X4.0475Y-3.98
X4.0475Y-4.005
X4.0475Y-4.03
X4.0475Y-4.0525
X4.0525Y-1.92
X4.0525Y-1.945
X4.0525Y-1.97
X4.0525Y-1.995
X4.0525Y-2.02
X4.0525Y-2.045
X4.0525Y-2.07
X4.0525Y-2.095
X4.0525Y-2.8825
X4.0525Y-2.905
X4.0525Y-2.93
X4.0525Y-2.955
X4.0525Y-2.98
X4.0525Y-3.005
X4.0525Y-3.03
X4.0525Y-3.055
X4.07Y-1.21
X4.0725Y-3.88
X4.0725Y-3.905
X4.0725Y-3.93
X4.0725Y-3.955
X4.0725Y-3.98
X4.0725Y-4.005
X4.0725Y-4.03
X4.0725Y-4.0525
X4.0775Y-1.92
X4.0775Y-1.945
X4.0775Y-1.97
X4.0775Y-1.995
X4.0775Y-2.02
X4.0775Y-2.045
X4.0775Y-2.07
X4.0775Y-2.095
X4.0775Y-2.8825
X4.0775Y-2.905
X4.0775Y-2.93
X4.0775Y-2.955
X4.0775Y-2.98
X4.0775Y-3.005
X4.0775Y-3.03
X4.0775Y-3.055
X4.0975Y-3.88
X4.0975Y-3.905
X4.0975Y-3.93
X4.0975Y-3.955
X4.0975Y-3.98
X4.0975Y-4.005
X4.0975Y-4.03
X4.0975Y-4.0525
X4.1025Y-1.92
X4.1025Y-1.945
X4.1025Y-1.97
X4.1025Y-1.995
X4.1025Y-2.02
X4.1025Y-2.045
X4.1025Y-2.07
X4.1025Y-2.095
X4.1025Y-2.8825
X4.1025Y-2.905
X4.1025Y-2.93
X4.1025Y-2.955
X4.1025Y-2.98
X4.1025Y-3.005
X4.1025Y-3.03
X4.1025Y-3.055
X4.105Y-3.705
X4.105Y-3.7275
X4.105Y-3.75
X4.105Y-4.1825
X4.105Y-4.205
X4.105Y-4.2275
X4.11Y-1.745
X4.11Y-1.7675
X4.11Y-1.79
X4.11Y-2.225
X4.11Y-2.2475
X4.11Y-2.27
X4.11Y-2.705
X4.11Y-2.7275
X4.11Y-2.75
X4.11Y-3.185
X4.11Y-3.2075
X4.11Y-3.23
X4.1225Y-3.88
X4.1225Y-3.905
X4.1225Y-3.93
X4.1225Y-3.955
X4.1225Y-3.98
X4.1225Y-4.005
X4.1225Y-4.03
X4.1225Y-4.0525
X4.1275Y-2.8825
X4.1275Y-2.905
X4.1275Y-2.93
X4.1275Y-2.955
X4.1275Y-2.98
X4.1275Y-3.005
X4.1275Y-3.0325
X4.1275Y-3.055
X4.13Y-1.92
X4.13Y-1.945
X4.13Y-1.97
X4.13Y-1.995
X4.13Y-2.02
X4.13Y-2.045
X4.13Y-2.07
X4.13Y-2.095
X4.1325Y-3.43
X4.155Y-2.125
X4.155Y-3.0825
X4.155Y-3.9525
X4.1574Y-4.0024
X4.1575Y-3.4525
X4.1575Y-3.485
X4.1575Y-3.9175
X4.1581Y-4.0307
X4.1581Y-2.9175
X4.1617Y-4.0565
X4.1621Y-2.9502
X4.1625Y-1.96
X4.1625Y-1.995
X4.1634Y-3.0024
X4.1635Y-3.0315
X4.165Y-2.04
X4.1673Y-3.0572
X4.1693Y-2.0966
X4.18Y-3.3725
X4.19Y-4.365
X4.2175Y-4.365
X4.2406Y-2.675
X4.2425Y-4.365
X4.2468Y-1.98
X4.2475Y-1.13
X4.2475Y-1.165
X4.2475Y-1.2
X4.2475Y-1.2375
X4.2475Y-4.0125
X4.25Y-3.9425
X4.2507Y-2.0522
X4.2529Y-2.4043
X4.2548Y-2.944
X4.2575Y-3.5875
X4.2675Y-2.515
X4.2675Y-4.3
X4.2908Y-2.9825
X4.295Y-4.3275
X4.4325Y-3.365
X4.4325Y-3.41
X4.4325Y-3.455
X4.49Y-2.37
X4.49Y-2.415
X4.49Y-2.46
X4.49Y-2.5075
T3
X1.0275Y-2.4175
X1.0675Y-2.3475
X1.1125Y-2.4175
X1.5453Y-3.34
X1.5825Y-1.8
X1.63Y-1.755
X1.635Y-0.9825
X1.725Y-1.8675
X1.7275Y-1.8
X1.7475Y-1.915
X1.7975Y-1.5638
X1.805Y-3.4025
X1.815Y-3.015
X1.8625Y-1.77
X1.865Y-3.28
X1.8669Y-2.543
X1.8675Y-3.3966
X1.895Y-2.2375
X2.0949Y-3.0323
X2.1125Y-2.88
X2.1575Y-3.03
X2.2275Y-3.9575
X2.29Y-3.0775
X2.313Y-1.1614
X2.313Y-1.2008
X2.313Y-1.2402
X2.313Y-1.2795
X2.35Y-2.62
X2.3524Y-1.1614
X2.3524Y-1.2008
X2.3524Y-1.2402
X2.3524Y-1.2795
X2.3917Y-1.1614
X2.3917Y-1.2008
X2.3917Y-1.2402
X2.3917Y-1.2795
X2.3975Y-3.275
X2.4075Y-3.08
X2.4311Y-1.1614
X2.4311Y-1.2008
X2.4311Y-1.2402
X2.4311Y-1.2795
X2.44Y-3.4725
X2.4775Y-3.4725
X2.515Y-3.4725
X2.5875Y-2.785
X2.7175Y-2.785
X2.7225Y-2.9975
X2.7954Y-1.1714
X2.7954Y-1.2108
X2.7954Y-1.2502
X2.7954Y-1.2895
X2.8225Y-3.035
X2.8348Y-1.1714
X2.8348Y-1.2108
X2.8348Y-1.2502
X2.8348Y-1.2895
X2.8425Y-3.59
X2.85Y-3.2925
X2.865Y-3.2275
X2.8742Y-1.2108
X2.8742Y-1.2502
X2.8742Y-1.2895
X2.8759Y-1.1714
X2.8775Y-2.205
X2.8775Y-2.245
X2.8775Y-2.285
X2.9Y-2.9375
X2.9075Y-3.8775
X2.9125Y-3.035
X2.9135Y-1.1714
X2.9135Y-1.2108
X2.9135Y-1.2502
X2.9135Y-1.2895
X3.1625Y-3.43
X3.1675Y-3.6925
X3.2016Y-3.74
X3.21Y-3.4259
X3.2225Y-2.675
X3.23Y-3.6875
X3.325Y-2.2875
X3.365Y-2.2875
X3.405Y-2.2875
X3.4425Y-2.2875
X3.48Y-2.2875
X3.4825Y-1.9625
X3.525Y-1.9625
X3.565Y-1.9625
X3.595Y-3.2775
X3.615Y-1.5425
X3.615Y-1.5825
X3.615Y-1.6225
X3.615Y-1.6625
X3.6283Y-3.3497
X3.6498Y-3.585
X3.655Y-1.405
X3.66Y-3.15
X3.6725Y-3.72
X3.6825Y-3.1975
X3.7Y-1.405
X3.7175Y-3.1625
X3.7325Y-2.2075
X3.7325Y-2.2475
X3.7325Y-2.29
X3.74Y-1.405
X3.74Y-2.01
X3.74Y-3.8325
X3.7425Y-2.06
X3.7425Y-3.2
X3.755Y-3.13
X3.78Y-2.605
X3.7825Y-1.405
X3.7925Y-3.2675
X3.7925Y-3.3075
X3.83Y-2.44
X3.8625Y-3.7875
X3.8725Y-3.5975
X4.2525Y-3.3925
X4.2525Y-3.44
X4.2534Y-3.3477
X4.28Y-2.625
X4.32Y-2.4825
X4.325Y-2.95
T4
X1.255Y-3.9955
X1.5575Y-3.9925
X0.9025Y-2.4975
X0.9025Y-2.5975
X0.9025Y-2.6975
X0.9025Y-2.7975
X0.9025Y-2.8975
X0.9025Y-2.9975
X0.9025Y-3.0975
X0.9025Y-3.1975
X0.9025Y-3.2975
X0.9025Y-3.3975
X0.9025Y-3.4975
X0.9025Y-3.5975
X0.9025Y-3.6975
X0.9025Y-3.7975
X0.9025Y-3.8975
X0.9025Y-3.9975
X0.9025Y-4.0975
X0.9025Y-4.1975
X0.9025Y-4.2975
X1.0025Y-2.4975
X1.0025Y-2.5975
X1.0025Y-2.6975
X1.0025Y-2.7975
X1.0025Y-2.8975
X1.0025Y-2.9975
X1.0025Y-3.0975
X1.0025Y-3.1975
X1.0025Y-3.2975
X1.0025Y-3.3975
X1.0025Y-3.4975
X1.0025Y-3.5975
X1.0025Y-3.6975
X1.0025Y-3.7975
X1.0025Y-3.8975
X1.0025Y-3.9975
X1.0025Y-4.0975
X1.0025Y-4.1975
X1.0025Y-4.2975
X3.3025Y-2.4975
X3.3025Y-2.5975
X3.3025Y-2.6975
X3.3025Y-2.7975
X3.3025Y-2.8975
X3.3025Y-2.9975
X3.3025Y-3.0975
X3.3025Y-3.1975
X3.3025Y-3.2975
X3.3025Y-3.3975
X3.3025Y-3.4975
X3.3025Y-3.5975
X3.3025Y-3.6975
X3.3025Y-3.7975
X3.3025Y-3.8975
X3.3025Y-3.9975
X3.3025Y-4.0975
X3.3025Y-4.1975
X3.3025Y-4.2975
X3.4025Y-2.4975
X3.4025Y-2.5975
X3.4025Y-2.6975
X3.4025Y-2.7975
X3.4025Y-2.8975
X3.4025Y-2.9975
X3.4025Y-3.0975
X3.4025Y-3.1975
X3.4025Y-3.2975
X3.4025Y-3.3975
X3.4025Y-3.4975
X3.4025Y-3.5975
X3.4025Y-3.6975
X3.4025Y-3.7975
X3.4025Y-3.8975
X3.4025Y-3.9975
X3.4025Y-4.0975
X3.4025Y-4.1975
X3.4025Y-4.2975
T5
X2.9545Y-3.7865
X3.0545Y-3.7865
X4.596Y-1.766
X4.596Y-1.866
X4.596Y-1.966
X4.596Y-2.066
X1.85Y-2.7375
X1.95Y-2.7375
X1.383Y-3.1905
X1.383Y-3.2905
X1.192Y-0.83
X1.292Y-0.83
X1.392Y-0.83
X1.492Y-0.83
X1.384Y-2.674
X1.384Y-2.774
X1.279Y-4.1525
X1.379Y-4.1525
X1.384Y-2.933
X1.384Y-3.033
X2.956Y-3.451
X3.056Y-3.451
X1.8148Y-3.1795
X1.9148Y-3.1795
X2.0148Y-3.1795
X2.1148Y-3.1795
X4.444Y-3.778
X4.444Y-3.878
X4.444Y-3.978
X4.444Y-4.078
X1.2805Y-3.8215
X1.3805Y-3.8215
X1.585Y-3.8225
X1.685Y-3.8225
X1.585Y-4.1525
X1.685Y-4.1525
X2.9515Y-3.113
X3.0515Y-3.113
X3.61Y-4.4725
X3.71Y-4.4725
X3.81Y-4.4725
X4.452Y-1.866
X4.452Y-1.966
X4.452Y-2.066
X4.452Y-2.166
X1.5845Y-3.491
X1.6845Y-3.491
X0.9781Y-1.8182
X0.9781Y-1.9182
X0.9781Y-2.0182
X0.9781Y-2.1182
X4.444Y-2.792
X4.444Y-2.892
X4.444Y-2.992
X4.444Y-3.092
T6
X2.8637Y-0.957
X3.0015Y-0.957
X1.985Y-0.95
X2.1228Y-0.95
X2.6065Y-4.444
X2.7443Y-4.444
X1.2947Y-4.4425
X1.4325Y-4.4425
X1.6225Y-4.4425
X1.7603Y-4.4425
X2.3832Y-0.951
X2.521Y-0.951
X1.949Y-4.444
X2.0868Y-4.444
X2.934Y-4.4425
X3.0718Y-4.4425
X2.2785Y-4.4441
X2.4162Y-4.4441
T7
X3.7744Y-0.95
X3.9744Y-0.95
X3.3295Y-0.95
X3.5295Y-0.95
T8
X0.936Y-0.92
X0.9275Y-4.505
X4.5276Y-0.9055
X4.5276Y-4.4882
T0
M30
